sudo: stop: command not found
sudo: ./stop: command not found
sudo: /home/tp/RaspberryPiRepositories/Ghost-Catcher-Cam/stop: command not found
ffmpeg version 4.1.4-1~deb10u1 Copyright (c) 2000-2019 the FFmpeg developers
  built with gcc 8 (Raspbian 8.3.0-6+rpi1)
  configuration: --prefix=/usr --extra-version='1~deb10u1' --toolchain=hardened --libdir=/usr/lib/arm-linux-gnueabihf --incdir=/usr/include/arm-linux-gnueabihf --arch=arm --enable-gpl --disable-stripping --enable-avresample --disable-filter=resample --enable-avisynth --enable-gnutls --enable-ladspa --enable-libaom --enable-libass --enable-libbluray --enable-libbs2b --enable-libcaca --enable-libcdio --enable-libcodec2 --enable-libflite --enable-libfontconfig --enable-libfreetype --enable-libfribidi --enable-libgme --enable-libgsm --enable-libjack --enable-libmp3lame --enable-libmysofa --enable-libopenjpeg --enable-libopenmpt --enable-libopus --enable-libpulse --enable-librsvg --enable-librubberband --enable-libshine --enable-libsnappy --enable-libsoxr --enable-libspeex --enable-libssh --enable-libtheora --enable-libtwolame --enable-libvidstab --enable-libvorbis --enable-libvpx --enable-libwavpack --enable-libwebp --enable-libx265 --enable-libxml2 --enable-libxvid --enable-libzmq --enable-libzvbi --enable-lv2 --enable-omx --enable-openal --enable-opengl --enable-sdl2 --enable-libdc1394 --enable-libdrm --enable-libiec61883 --enable-chromaprint --enable-frei0r --enable-libx264 --enable-shared
  WARNING: library configuration mismatch
  avcodec     configuration: --prefix=/usr --extra-version='1~deb10u1' --toolchain=hardened --libdir=/usr/lib/arm-linux-gnueabihf --incdir=/usr/include/arm-linux-gnueabihf --arch=arm --enable-gpl --disable-stripping --enable-avresample --disable-filter=resample --enable-avisynth --enable-gnutls --enable-ladspa --enable-libaom --enable-libass --enable-libbluray --enable-libbs2b --enable-libcaca --enable-libcdio --enable-libcodec2 --enable-libflite --enable-libfontconfig --enable-libfreetype --enable-libfribidi --enable-libgme --enable-libgsm --enable-libjack --enable-libmp3lame --enable-libmysofa --enable-libopenjpeg --enable-libopenmpt --enable-libopus --enable-libpulse --enable-librsvg --enable-librubberband --enable-libshine --enable-libsnappy --enable-libsoxr --enable-libspeex --enable-libssh --enable-libtheora --enable-libtwolame --enable-libvidstab --enable-libvorbis --enable-libvpx --enable-libwavpack --enable-libwebp --enable-libx265 --enable-libxml2 --enable-libxvid --enable-libzmq --enable-libzvbi --enable-lv2 --enable-omx --enable-openal --enable-opengl --enable-sdl2 --enable-libdc1394 --enable-libdrm --enable-libiec61883 --enable-chromaprint --enable-frei0r --enable-libx264 --enable-shared --enable-version3 --disable-doc --disable-programs --enable-liblensfun --enable-libopencore_amrnb --enable-libopencore_amrwb --enable-libtesseract --enable-libvo_amrwbenc
  libavutil      56. 22.100 / 56. 22.100
  libavcodec     58. 35.100 / 58. 35.100
  libavformat    58. 20.100 / 58. 20.100
  libavdevice    58.  5.100 / 58.  5.100
  libavfilter     7. 40.101 /  7. 40.101
  libavresample   4.  0.  0 /  4.  0.  0
  libswscale      5.  3.100 /  5.  3.100
  libswresample   3.  3.100 /  3.  3.100
  libpostproc    55.  3.100 / 55.  3.100
Input #0, lavfi, from 'anullsrc':
  Duration: N/A, start: 0.000000, bitrate: 705 kb/s
    Stream #0:0: Audio: pcm_u8, 44100 Hz, stereo, u8, 705 kb/s
Input #1, x11grab, from ':0.0':
  Duration: N/A, start: 1576464826.598501, bitrate: N/A
    Stream #1:0: Video: rawvideo (BGR[0] / 0x524742), bgr0, 480x320, 30 fps, 30 tbr, 1000k tbn, 1000k tbc
Stream mapping:
  Stream #1:0 -> #0:0 (rawvideo (native) -> flv1 (flv))
  Stream #0:0 -> #0:1 (pcm_u8 (native) -> mp3 (libmp3lame))
Press [q] to stop, [?] for help
Output #0, flv, to 'rtmp://a.rtmp.youtube.com/live2/628y-jagt-7b5c-4c9b':
  Metadata:
    encoder         : Lavf58.20.100
    Stream #0:0: Video: flv1 (flv) ([2][0][0][0] / 0x0002), yuv420p(progressive), 480x320, q=2-31, 200 kb/s, 30 fps, 1k tbn, 30 tbc
    Metadata:
      encoder         : Lavc58.35.100 flv
    Side data:
      cpb: bitrate max/min/avg: 0/0/200000 buffer size: 0 vbv_delay: -1
    Stream #0:1: Audio: mp3 (libmp3lame) ([2][0][0][0] / 0x0002), 44100 Hz, stereo, s16p
    Metadata:
      encoder         : Lavc58.35.100 libmp3lame
[x11grab @ 0x18f1290] Thread message queue blocking; consider raising the thread_queue_size option (current value: 8)
frame=    7 fps=0.0 q=5.8 size=      57kB time=00:00:00.23 bitrate=1967.2kbits/s speed=0.421x    frame=   13 fps= 12 q=4.4 size=      90kB time=00:00:01.09 bitrate= 674.6kbits/s speed=1.03x    frame=   20 fps= 13 q=5.2 size=     104kB time=00:00:01.63 bitrate= 520.2kbits/s speed=1.03x    frame=   27 fps= 13 q=6.0 size=     136kB time=00:00:02.16 bitrate= 513.0kbits/s speed=1.02x    frame=   34 fps= 13 q=5.6 size=     150kB time=00:00:02.70 bitrate= 454.6kbits/s speed=1.02x    frame=   41 fps= 13 q=5.4 size=     184kB time=00:00:03.24 bitrate= 465.9kbits/s speed=1.02x    frame=   50 fps= 14 q=5.8 size=     216kB time=00:00:03.93 bitrate= 449.0kbits/s speed=1.06x    frame=   59 fps= 14 q=4.9 size=     233kB time=00:00:04.49 bitrate= 424.2kbits/s speed=1.06x    frame=   66 fps= 14 q=4.4 size=     255kB time=00:00:04.83 bitrate= 431.9kbits/s speed=1.02x    frame=   73 fps= 14 q=5.5 size=     270kB time=00:00:05.33 bitrate= 414.9kbits/s speed=1.01x    frame=   80 fps= 14 q=5.9 size=     294kB time=00:00:05.86 bitrate= 410.5kbits/s speed=1.01x    frame=   87 fps= 14 q=5.7 size=     320kB time=00:00:06.37 bitrate= 411.4kbits/s speed=1.01x    frame=   94 fps= 14 q=5.5 size=     334kB time=00:00:06.90 bitrate= 396.9kbits/s speed=1.01x    frame=  103 fps= 14 q=4.6 size=     371kB time=00:00:07.57 bitrate= 401.4kbits/s speed=1.03x    frame=  117 fps= 15 q=5.4 size=     412kB time=00:00:08.33 bitrate= 405.2kbits/s speed=1.06x    frame=  131 fps= 16 q=5.8 size=     442kB time=00:00:08.83 bitrate= 410.3kbits/s speed=1.06x    frame=  140 fps= 16 q=5.4 size=     470kB time=00:00:09.17 bitrate= 419.7kbits/s speed=1.03x    frame=  148 fps= 16 q=4.6 size=     492kB time=00:00:09.53 bitrate= 422.7kbits/s speed=1.01x    frame=  155 fps= 16 q=5.6 size=     506kB time=00:00:10.03 bitrate= 413.2kbits/s speed=1.01x    frame=  162 fps= 15 q=4.4 size=     533kB time=00:00:10.56 bitrate= 413.3kbits/s speed=1.01x    frame=  169 fps= 15 q=4.5 size=     547kB time=00:00:11.07 bitrate= 404.9kbits/s speed=1.01x    frame=  176 fps= 15 q=5.7 size=     573kB time=00:00:11.60 bitrate= 404.5kbits/s speed=1.01x    frame=  186 fps= 15 q=5.4 size=     608kB time=00:00:12.33 bitrate= 404.1kbits/s speed=1.02x    frame=  200 fps= 16 q=5.6 size=     641kB time=00:00:13.06 bitrate= 401.8kbits/s speed=1.04x    frame=  214 fps= 16 q=5.0 size=     672kB time=00:00:13.55 bitrate= 405.9kbits/s speed=1.04x    frame=  222 fps= 16 q=6.1 size=     697kB time=00:00:13.84 bitrate= 412.3kbits/s speed=1.02x    frame=  230 fps= 16 q=5.1 size=     720kB time=00:00:14.23 bitrate= 414.5kbits/s speed=1.01x    frame=  237 fps= 16 q=5.4 size=     733kB time=00:00:14.73 bitrate= 407.3kbits/s speed=1.01x    frame=  244 fps= 16 q=3.0 size=     763kB time=00:00:15.23 bitrate= 410.3kbits/s speed=   1x    frame=  251 fps= 16 q=4.8 size=     778kB time=00:00:15.76 bitrate= 404.1kbits/s speed=   1x    frame=  258 fps= 16 q=5.4 size=     810kB time=00:00:16.30 bitrate= 407.2kbits/s speed=   1x    frame=  268 fps= 16 q=5.9 size=     844kB time=00:00:17.03 bitrate= 405.7kbits/s speed=1.02x    frame=  275 fps= 16 q=5.6 size=     853kB time=00:00:17.43 bitrate= 400.9kbits/s speed=1.01x    frame=  282 fps= 16 q=5.1 size=     883kB time=00:00:17.86 bitrate= 405.0kbits/s speed=   1x    frame=  289 fps= 16 q=3.4 size=     895kB time=00:00:18.40 bitrate= 398.4kbits/s speed=   1x    frame=  296 fps= 16 q=6.1 size=     928kB time=00:00:18.93 bitrate= 401.7kbits/s speed=   1x    frame=  303 fps= 16 q=4.7 size=     954kB time=00:00:19.46 bitrate= 401.4kbits/s speed=   1x    frame=  310 fps= 16 q=4.6 size=     966kB time=00:00:19.96 bitrate= 396.5kbits/s speed=   1x    frame=  321 fps= 16 q=6.0 size=     998kB time=00:00:20.80 bitrate= 392.9kbits/s speed=1.02x    frame=  329 fps= 16 q=6.1 size=    1023kB time=00:00:21.13 bitrate= 396.7kbits/s speed=1.01x    frame=  336 fps= 16 q=5.3 size=    1035kB time=00:00:21.63 bitrate= 391.9kbits/s speed=1.01x    frame=  344 fps= 16 q=4.9 size=    1062kB time=00:00:22.13 bitrate= 393.1kbits/s speed=   1x    frame=  351 fps= 16 q=5.2 size=    1093kB time=00:00:22.63 bitrate= 395.7kbits/s speed=   1x    frame=  358 fps= 16 q=5.3 size=    1106kB time=00:00:23.17 bitrate= 391.0kbits/s speed=   1x    frame=  365 fps= 15 q=6.4 size=    1129kB time=00:00:23.66 bitrate= 390.8kbits/s speed=   1x    frame=  377 fps= 16 q=6.1 size=    1166kB time=00:00:24.55 bitrate= 388.9kbits/s speed=1.02x    frame=  387 fps= 16 q=6.9 size=    1190kB time=00:00:24.92 bitrate= 391.2kbits/s speed=1.01x    frame=  395 fps= 16 q=6.1 size=    1199kB time=00:00:25.26 bitrate= 388.8kbits/s speed=   1x    frame=  402 fps= 16 q=6.1 size=    1223kB time=00:00:25.76 bitrate= 388.8kbits/s speed=   1x    frame=  409 fps= 16 q=3.5 size=    1234kB time=00:00:26.26 bitrate= 384.8kbits/s speed=   1x    frame=  416 fps= 16 q=6.0 size=    1262kB time=00:00:26.77 bitrate= 386.1kbits/s speed=   1x    frame=  423 fps= 16 q=7.4 size=    1287kB time=00:00:27.30 bitrate= 386.0kbits/s speed=   1x    frame=  432 fps= 16 q=7.5 size=    1302kB time=00:00:27.93 bitrate= 381.8kbits/s speed=1.01x    frame=  442 fps= 16 q=9.2 size=    1330kB time=00:00:28.53 bitrate= 381.8kbits/s speed=1.01x    frame=  450 fps= 16 q=8.3 size=    1352kB time=00:00:28.90 bitrate= 383.1kbits/s speed=   1x    frame=  458 fps= 16 q=9.2 size=    1375kB time=00:00:29.44 bitrate= 382.7kbits/s speed=   1x    frame=  466 fps= 16 q=7.8 size=    1389kB time=00:00:30.00 bitrate= 379.3kbits/s speed=   1x    frame=  474 fps= 16 q=7.8 size=    1415kB time=00:00:30.56 bitrate= 379.1kbits/s speed=1.01x    frame=  481 fps= 16 q=5.4 size=    1428kB time=00:00:31.03 bitrate= 376.9kbits/s speed=   1x    frame=  491 fps= 16 q=7.8 size=    1458kB time=00:00:31.74 bitrate= 376.2kbits/s speed=1.01x    frame=  505 fps= 16 q=6.2 size=    1499kB time=00:00:32.47 bitrate= 378.2kbits/s speed=1.02x    frame=  515 fps= 16 q=8.1 size=    1510kB time=00:00:32.78 bitrate= 377.2kbits/s speed=1.01x    frame=  522 fps= 16 q=8.7 size=    1529kB time=00:00:33.13 bitrate= 378.1kbits/s speed=   1x    [flv @ 0x18fa3c0] Failed to update header with correct duration.
[flv @ 0x18fa3c0] Failed to update header with correct filesize.
frame=  525 fps= 16 q=9.1 Lsize=    1536kB time=00:00:33.41 bitrate= 376.7kbits/s speed=1.01x    
video:985kB audio:522kB subtitle:0kB other streams:0kB global headers:0kB muxing overhead: 1.891342%
ffmpeg version 4.1.4-1~deb10u1 Copyright (c) 2000-2019 the FFmpeg developers
  built with gcc 8 (Raspbian 8.3.0-6+rpi1)
  configuration: --prefix=/usr --extra-version='1~deb10u1' --toolchain=hardened --libdir=/usr/lib/arm-linux-gnueabihf --incdir=/usr/include/arm-linux-gnueabihf --arch=arm --enable-gpl --disable-stripping --enable-avresample --disable-filter=resample --enable-avisynth --enable-gnutls --enable-ladspa --enable-libaom --enable-libass --enable-libbluray --enable-libbs2b --enable-libcaca --enable-libcdio --enable-libcodec2 --enable-libflite --enable-libfontconfig --enable-libfreetype --enable-libfribidi --enable-libgme --enable-libgsm --enable-libjack --enable-libmp3lame --enable-libmysofa --enable-libopenjpeg --enable-libopenmpt --enable-libopus --enable-libpulse --enable-librsvg --enable-librubberband --enable-libshine --enable-libsnappy --enable-libsoxr --enable-libspeex --enable-libssh --enable-libtheora --enable-libtwolame --enable-libvidstab --enable-libvorbis --enable-libvpx --enable-libwavpack --enable-libwebp --enable-libx265 --enable-libxml2 --enable-libxvid --enable-libzmq --enable-libzvbi --enable-lv2 --enable-omx --enable-openal --enable-opengl --enable-sdl2 --enable-libdc1394 --enable-libdrm --enable-libiec61883 --enable-chromaprint --enable-frei0r --enable-libx264 --enable-shared
  WARNING: library configuration mismatch
  avcodec     configuration: --prefix=/usr --extra-version='1~deb10u1' --toolchain=hardened --libdir=/usr/lib/arm-linux-gnueabihf --incdir=/usr/include/arm-linux-gnueabihf --arch=arm --enable-gpl --disable-stripping --enable-avresample --disable-filter=resample --enable-avisynth --enable-gnutls --enable-ladspa --enable-libaom --enable-libass --enable-libbluray --enable-libbs2b --enable-libcaca --enable-libcdio --enable-libcodec2 --enable-libflite --enable-libfontconfig --enable-libfreetype --enable-libfribidi --enable-libgme --enable-libgsm --enable-libjack --enable-libmp3lame --enable-libmysofa --enable-libopenjpeg --enable-libopenmpt --enable-libopus --enable-libpulse --enable-librsvg --enable-librubberband --enable-libshine --enable-libsnappy --enable-libsoxr --enable-libspeex --enable-libssh --enable-libtheora --enable-libtwolame --enable-libvidstab --enable-libvorbis --enable-libvpx --enable-libwavpack --enable-libwebp --enable-libx265 --enable-libxml2 --enable-libxvid --enable-libzmq --enable-libzvbi --enable-lv2 --enable-omx --enable-openal --enable-opengl --enable-sdl2 --enable-libdc1394 --enable-libdrm --enable-libiec61883 --enable-chromaprint --enable-frei0r --enable-libx264 --enable-shared --enable-version3 --disable-doc --disable-programs --enable-liblensfun --enable-libopencore_amrnb --enable-libopencore_amrwb --enable-libtesseract --enable-libvo_amrwbenc
  libavutil      56. 22.100 / 56. 22.100
  libavcodec     58. 35.100 / 58. 35.100
  libavformat    58. 20.100 / 58. 20.100
  libavdevice    58.  5.100 / 58.  5.100
  libavfilter     7. 40.101 /  7. 40.101
  libavresample   4.  0.  0 /  4.  0.  0
  libswscale      5.  3.100 /  5.  3.100
  libswresample   3.  3.100 /  3.  3.100
  libpostproc    55.  3.100 / 55.  3.100
Input #0, lavfi, from 'anullsrc':
  Duration: N/A, start: 0.000000, bitrate: 705 kb/s
    Stream #0:0: Audio: pcm_u8, 44100 Hz, stereo, u8, 705 kb/s
Input #1, x11grab, from ':0.0':
  Duration: N/A, start: 1576464936.032630, bitrate: N/A
    Stream #1:0: Video: rawvideo (BGR[0] / 0x524742), bgr0, 480x320, 30 fps, 30 tbr, 1000k tbn, 1000k tbc
Stream mapping:
  Stream #1:0 -> #0:0 (rawvideo (native) -> flv1 (flv))
  Stream #0:0 -> #0:1 (pcm_u8 (native) -> mp3 (libmp3lame))
Press [q] to stop, [?] for help
Output #0, flv, to 'rtmp://a.rtmp.youtube.com/live2/628y-jagt-7b5c-4c9b':
  Metadata:
    encoder         : Lavf58.20.100
    Stream #0:0: Video: flv1 (flv) ([2][0][0][0] / 0x0002), yuv420p(progressive), 480x320, q=2-31, 200 kb/s, 30 fps, 1k tbn, 30 tbc
    Metadata:
      encoder         : Lavc58.35.100 flv
    Side data:
      cpb: bitrate max/min/avg: 0/0/200000 buffer size: 0 vbv_delay: -1
    Stream #0:1: Audio: mp3 (libmp3lame) ([2][0][0][0] / 0x0002), 44100 Hz, stereo, s16p
    Metadata:
      encoder         : Lavc58.35.100 libmp3lame
[x11grab @ 0x1ce0290] Thread message queue blocking; consider raising the thread_queue_size option (current value: 8)
frame=    8 fps=0.0 q=5.4 size=      51kB time=00:00:00.26 bitrate=1599.6kbits/s speed=0.506x    frame=   14 fps= 13 q=5.5 size=      79kB time=00:00:00.88 bitrate= 730.5kbits/s speed=0.842x    frame=   21 fps= 13 q=5.4 size=      94kB time=00:00:01.40 bitrate= 547.0kbits/s speed=0.871x    frame=   28 fps= 13 q=6.8 size=     123kB time=00:00:01.96 bitrate= 511.9kbits/s speed=0.924x    frame=   35 fps= 13 q=5.4 size=     137kB time=00:00:02.53 bitrate= 444.2kbits/s speed=0.956x    frame=   42 fps= 13 q=5.7 size=     164kB time=00:00:03.03 bitrate= 442.0kbits/s speed=0.959x    frame=   52 fps= 14 q=6.4 size=     196kB time=00:00:03.80 bitrate= 423.0kbits/s speed=1.02x    frame=   59 fps= 14 q=6.1 size=     209kB time=00:00:04.20 bitrate= 406.7kbits/s speed=0.997x    frame=   66 fps= 14 q=5.6 size=     236kB time=00:00:04.65 bitrate= 415.6kbits/s speed=0.985x    frame=   73 fps= 14 q=4.2 size=     248kB time=00:00:05.13 bitrate= 395.8kbits/s speed=0.981x    frame=   80 fps= 14 q=5.9 size=     277kB time=00:00:05.64 bitrate= 402.0kbits/s speed=0.982x    frame=   87 fps= 14 q=6.8 size=     303kB time=00:00:06.14 bitrate= 404.3kbits/s speed=0.981x    frame=   94 fps= 14 q=6.0 size=     316kB time=00:00:06.66 bitrate= 388.7kbits/s speed=0.982x    frame=  105 fps= 14 q=5.7 size=     353kB time=00:00:07.47 bitrate= 387.0kbits/s speed=1.02x    frame=  113 fps= 14 q=5.7 size=     380kB time=00:00:07.89 bitrate= 394.4kbits/s speed=1.01x    frame=  120 fps= 14 q=5.3 size=     392kB time=00:00:08.28 bitrate= 387.3kbits/s speed=0.995x    frame=  127 fps= 14 q=5.7 size=     417kB time=00:00:08.70 bitrate= 392.2kbits/s speed=0.986x    frame=  134 fps= 14 q=6.8 size=     442kB time=00:00:09.23 bitrate= 391.8kbits/s speed=0.988x    frame=  141 fps= 14 q=6.1 size=     454kB time=00:00:09.73 bitrate= 382.4kbits/s speed=0.987x    frame=  148 fps= 14 q=5.5 size=     480kB time=00:00:10.26 bitrate= 382.8kbits/s speed=0.988x    frame=  157 fps= 14 q=5.8 size=     499kB time=00:00:10.93 bitrate= 374.1kbits/s speed=0.999x    frame=  164 fps= 14 q=7.0 size=     524kB time=00:00:11.44 bitrate= 375.4kbits/s speed=0.999x    frame=  171 fps= 14 q=4.6 size=     547kB time=00:00:11.86 bitrate= 377.8kbits/s speed=0.993x    frame=  178 fps= 14 q=6.8 size=     563kB time=00:00:12.36 bitrate= 373.1kbits/s speed=0.992x    frame=  185 fps= 14 q=6.9 size=     590kB time=00:00:12.86 bitrate= 375.7kbits/s speed=0.992x    frame=  192 fps= 14 q=5.7 size=     603kB time=00:00:13.37 bitrate= 369.3kbits/s speed=0.992x    frame=  199 fps= 14 q=6.3 size=     634kB time=00:00:13.90 bitrate= 373.7kbits/s speed=0.992x    frame=  209 fps= 14 q=4.7 size=     667kB time=00:00:14.63 bitrate= 373.5kbits/s speed=1.01x    frame=  217 fps= 14 q=5.1 size=     680kB time=00:00:15.03 bitrate= 370.5kbits/s speed=0.995x    frame=  224 fps= 14 q=6.7 size=     706kB time=00:00:15.54 bitrate= 372.0kbits/s speed=0.995x    frame=  231 fps= 14 q=6.4 size=     732kB time=00:00:16.04 bitrate= 373.7kbits/s speed=0.995x    frame=  238 fps= 14 q=6.5 size=     745kB time=00:00:16.53 bitrate= 369.0kbits/s speed=0.994x    frame=  245 fps= 14 q=6.4 size=     770kB time=00:00:17.03 bitrate= 370.5kbits/s speed=0.994x    frame=  252 fps= 14 q=5.9 size=     783kB time=00:00:17.53 bitrate= 365.6kbits/s speed=0.993x    frame=  262 fps= 14 q=6.2 size=     814kB time=00:00:18.26 bitrate= 364.9kbits/s speed=   1x    frame=  270 fps= 14 q=6.4 size=     838kB time=00:00:18.66 bitrate= 367.6kbits/s speed=0.995x    frame=  277 fps= 14 q=5.0 size=     851kB time=00:00:19.17 bitrate= 363.5kbits/s speed=0.995x    frame=  284 fps= 14 q=6.1 size=     876kB time=00:00:19.67 bitrate= 364.8kbits/s speed=0.995x    frame=  291 fps= 14 q=6.1 size=     901kB time=00:00:20.16 bitrate= 366.1kbits/s speed=0.994x    frame=  298 fps= 14 q=6.1 size=     914kB time=00:00:20.70 bitrate= 361.8kbits/s speed=0.995x    frame=  306 fps= 14 q=6.3 size=     945kB time=00:00:21.26 bitrate= 364.1kbits/s speed=0.997x    frame=  317 fps= 15 q=5.5 size=     976kB time=00:00:21.97 bitrate= 364.1kbits/s speed=1.01x    frame=  324 fps= 15 q=6.6 size=     988kB time=00:00:22.38 bitrate= 361.6kbits/s speed=   1x    frame=  332 fps= 14 q=5.7 size=    1012kB time=00:00:22.83 bitrate= 363.0kbits/s speed=0.997x    frame=  339 fps= 14 q=7.3 size=    1036kB time=00:00:23.30 bitrate= 364.2kbits/s speed=0.995x    frame=  346 fps= 14 q=5.9 size=    1048kB time=00:00:23.80 bitrate= 360.8kbits/s speed=0.995x    frame=  353 fps= 14 q=5.5 size=    1073kB time=00:00:24.33 bitrate= 361.2kbits/s speed=0.996x    frame=  360 fps= 14 q=5.9 size=    1086kB time=00:00:24.84 bitrate= 358.2kbits/s speed=0.996x    frame=  370 fps= 15 q=7.0 size=    1121kB time=00:00:25.57 bitrate= 359.1kbits/s speed=1.01x    frame=  383 fps= 15 q=7.4 size=    1152kB time=00:00:26.20 bitrate= 360.2kbits/s speed=1.01x    frame=  391 fps= 15 q=7.9 size=    1172kB time=00:00:26.46 bitrate= 362.8kbits/s speed=0.998x    frame=  398 fps= 15 q=7.6 size=    1194kB time=00:00:26.93 bitrate= 363.3kbits/s speed=0.997x    frame=  405 fps= 15 q=6.3 size=    1206kB time=00:00:27.40 bitrate= 360.5kbits/s speed=0.996x    frame=  412 fps= 15 q=6.0 size=    1234kB time=00:00:27.90 bitrate= 362.3kbits/s speed=0.996x    frame=  419 fps= 15 q=5.9 size=    1247kB time=00:00:28.43 bitrate= 359.2kbits/s speed=0.997x    frame=  426 fps= 15 q=5.8 size=    1272kB time=00:00:28.94 bitrate= 359.9kbits/s speed=0.997x    frame=  438 fps= 15 q=6.9 size=    1305kB time=00:00:29.80 bitrate= 358.8kbits/s speed=1.01x    frame=  446 fps= 15 q=6.5 size=    1329kB time=00:00:30.12 bitrate= 361.3kbits/s speed=   1x    frame=  453 fps= 15 q=5.7 size=    1339kB time=00:00:30.53 bitrate= 359.3kbits/s speed=0.999x    frame=  460 fps= 15 q=6.5 size=    1363kB time=00:00:30.96 bitrate= 360.6kbits/s speed=0.996x    frame=  467 fps= 15 q=7.1 size=    1376kB time=00:00:31.50 bitrate= 357.8kbits/s speed=0.997x    frame=  474 fps= 15 q=5.9 size=    1401kB time=00:00:32.00 bitrate= 358.7kbits/s speed=0.995x    frame=  480 fps= 15 q=4.8 size=    1411kB time=00:00:32.47 bitrate= 356.1kbits/s speed=0.994x    frame=  489 fps= 15 q=6.8 size=    1451kB time=00:00:33.20 bitrate= 357.9kbits/s speed=   1x    frame=  499 fps= 15 q=5.4 size=    1479kB time=00:00:33.80 bitrate= 358.4kbits/s speed=   1x    frame=  507 fps= 15 q=6.0 size=    1501kB time=00:00:34.16 bitrate= 359.9kbits/s speed=0.998x    frame=  514 fps= 15 q=6.3 size=    1514kB time=00:00:34.66 bitrate= 357.7kbits/s speed=0.997x    frame=  521 fps= 15 q=6.9 size=    1539kB time=00:00:35.16 bitrate= 358.5kbits/s speed=0.997x    frame=  528 fps= 15 q=6.9 size=    1552kB time=00:00:35.68 bitrate= 356.2kbits/s speed=0.998x    frame=  535 fps= 15 q=6.7 size=    1577kB time=00:00:36.18 bitrate= 357.0kbits/s speed=0.998x    frame=  543 fps= 15 q=6.7 size=    1603kB time=00:00:36.73 bitrate= 357.5kbits/s speed=0.998x    frame=  557 fps= 15 q=6.2 size=    1638kB time=00:00:37.59 bitrate= 357.0kbits/s speed=1.01x    frame=  566 fps= 15 q=6.5 size=    1667kB time=00:00:37.93 bitrate= 359.9kbits/s speed=   1x    frame=  574 fps= 15 q=5.5 size=    1677kB time=00:00:38.30 bitrate= 358.6kbits/s speed=0.998x    frame=  581 fps= 15 q=6.2 size=    1701kB time=00:00:38.80 bitrate= 359.0kbits/s speed=0.998x    frame=  588 fps= 15 q=5.9 size=    1712kB time=00:00:39.30 bitrate= 356.9kbits/s speed=0.998x    frame=  595 fps= 15 q=6.7 size=    1738kB time=00:00:39.80 bitrate= 357.7kbits/s speed=0.998x    frame=  602 fps= 15 q=5.8 size=    1766kB time=00:00:40.30 bitrate= 358.9kbits/s speed=0.998x    frame=  611 fps= 15 q=6.0 size=    1781kB time=00:00:40.93 bitrate= 356.4kbits/s speed=   1x    frame=  624 fps= 15 q=5.7 size=    1815kB time=00:00:41.66 bitrate= 356.9kbits/s speed=1.01x    frame=  632 fps= 15 q=6.1 size=    1839kB time=00:00:41.95 bitrate= 359.1kbits/s speed=0.999x    frame=  639 fps= 15 q=5.6 size=    1869kB time=00:00:42.40 bitrate= 361.2kbits/s speed=0.998x    frame=  646 fps= 15 q=6.4 size=    1881kB time=00:00:42.90 bitrate= 359.1kbits/s speed=0.998x    frame=  653 fps= 15 q=6.1 size=    1908kB time=00:00:43.40 bitrate= 360.1kbits/s speed=0.998x    frame=  660 fps= 15 q=5.4 size=    1919kB time=00:00:43.90 bitrate= 358.2kbits/s speed=0.998x    frame=  667 fps= 15 q=6.4 size=    1947kB time=00:00:44.40 bitrate= 359.2kbits/s speed=0.998x    frame=  678 fps= 15 q=7.5 size=    1979kB time=00:00:45.21 bitrate= 358.4kbits/s speed=   1x    frame=  686 fps= 15 q=6.2 size=    2004kB time=00:00:45.53 bitrate= 360.5kbits/s speed=0.999x    frame=  693 fps= 15 q=6.7 size=    2016kB time=00:00:46.00 bitrate= 358.9kbits/s speed=0.999x    frame=  701 fps= 15 q=7.1 size=    2039kB time=00:00:46.53 bitrate= 358.9kbits/s speed=0.999x    frame=  708 fps= 15 q=5.9 size=    2050kB time=00:00:47.03 bitrate= 357.0kbits/s speed=0.999x    frame=  714 fps= 15 q=5.9 size=    2077kB time=00:00:47.49 bitrate= 358.2kbits/s speed=0.998x    frame=  721 fps= 15 q=4.7 size=    2088kB time=00:00:47.96 bitrate= 356.6kbits/s speed=0.998x    frame=  732 fps= 15 q=6.1 size=    2119kB time=00:00:48.77 bitrate= 355.9kbits/s speed=   1x    frame=  747 fps= 15 q=7.4 size=    2161kB time=00:00:49.39 bitrate= 358.4kbits/s speed=1.01x    frame=  755 fps= 15 q=7.0 size=    2169kB time=00:00:49.66 bitrate= 357.7kbits/s speed=   1x    frame=  763 fps= 15 q=7.0 size=    2193kB time=00:00:50.13 bitrate= 358.3kbits/s speed=0.998x    frame=  770 fps= 15 q=6.8 size=    2215kB time=00:00:50.63 bitrate= 358.4kbits/s speed=0.998x    frame=  777 fps= 15 q=5.7 size=    2226kB time=00:00:51.13 bitrate= 356.6kbits/s speed=0.998x    frame=  784 fps= 15 q=5.3 size=    2250kB time=00:00:51.63 bitrate= 357.0kbits/s speed=0.998x    frame=  791 fps= 15 q=5.8 size=    2262kB time=00:00:52.14 bitrate= 355.4kbits/s speed=0.998x    frame=  802 fps= 15 q=5.4 size=    2296kB time=00:00:52.93 bitrate= 355.3kbits/s speed=   1x    frame=  814 fps= 15 q=5.6 size=    2323kB time=00:00:53.47 bitrate= 355.8kbits/s speed=   1x    frame=  822 fps= 15 q=6.3 size=    2343kB time=00:00:53.76 bitrate= 357.0kbits/s speed=0.999x    frame=  829 fps= 15 q=5.1 size=    2354kB time=00:00:54.26 bitrate= 355.4kbits/s speed=0.999x    frame=  836 fps= 15 q=9.8 size=    2381kB time=00:00:54.73 bitrate= 356.4kbits/s speed=0.997x    frame=  842 fps= 15 q=15.2 size=    2409kB time=00:00:55.17 bitrate= 357.7kbits/s speed=0.996x    frame=  848 fps= 15 q=29.6 size=    2436kB time=00:00:55.70 bitrate= 358.3kbits/s speed=0.996x    frame=  856 fps= 15 q=31.0 size=    2467kB time=00:00:56.36 bitrate= 358.5kbits/s speed=0.999x    frame=  869 fps= 15 q=14.6 size=    2502kB time=00:00:57.20 bitrate= 358.3kbits/s speed=1.01x    frame=  878 fps= 15 q=11.1 size=    2519kB time=00:00:57.52 bitrate= 358.8kbits/s speed=   1x    frame=  886 fps= 15 q=12.9 size=    2535kB time=00:00:57.94 bitrate= 358.4kbits/s speed=0.999x    frame=  893 fps= 15 q=11.0 size=    2554kB time=00:00:58.41 bitrate= 358.2kbits/s speed=0.999x    frame=  900 fps= 15 q=14.5 size=    2581kB time=00:00:58.93 bitrate= 358.8kbits/s speed=0.999x    frame=  907 fps= 15 q=13.1 size=    2596kB time=00:00:59.40 bitrate= 358.0kbits/s speed=0.998x    frame=  914 fps= 15 q=16.8 size=    2619kB time=00:00:59.93 bitrate= 358.0kbits/s speed=0.998x    frame=  924 fps= 15 q=12.6 size=    2652kB time=00:01:00.66 bitrate= 358.1kbits/s speed=   1x    frame=  936 fps= 15 q=12.1 size=    2682kB time=00:01:01.25 bitrate= 358.6kbits/s speed=   1x    frame=  944 fps= 15 q=20.6 size=    2700kB time=00:01:01.60 bitrate= 359.1kbits/s speed=0.999x    frame=  952 fps= 15 q=15.9 size=    2723kB time=00:01:02.13 bitrate= 358.9kbits/s speed=   1x    frame=  959 fps= 15 q=10.5 size=    2738kB time=00:01:02.63 bitrate= 358.0kbits/s speed=0.999x    frame=  966 fps= 15 q=22.4 size=    2762kB time=00:01:03.13 bitrate= 358.4kbits/s speed=0.999x    frame=  973 fps= 15 q=30.6 size=    2787kB time=00:01:03.63 bitrate= 358.8kbits/s speed=0.998x    frame=  982 fps= 15 q=17.9 size=    2805kB time=00:01:04.30 bitrate= 357.3kbits/s speed=   1x    frame=  989 fps= 15 q=21.0 size=    2827kB time=00:01:04.76 bitrate= 357.6kbits/s speed=   1x    frame=  996 fps= 15 q=14.7 size=    2845kB time=00:01:05.20 bitrate= 357.4kbits/s speed=0.998x    frame= 1003 fps= 15 q=14.9 size=    2859kB time=00:01:05.70 bitrate= 356.4kbits/s speed=0.998x    frame= 1010 fps= 15 q=18.3 size=    2881kB time=00:01:06.23 bitrate= 356.3kbits/s speed=0.998x    frame= 1017 fps= 15 q=16.7 size=    2896kB time=00:01:06.74 bitrate= 355.5kbits/s speed=0.998x    frame= 1024 fps= 15 q=15.9 size=    2917kB time=00:01:07.26 bitrate= 355.2kbits/s speed=0.998x    frame= 1035 fps= 15 q=11.8 size=    2948kB time=00:01:08.10 bitrate= 354.6kbits/s speed=   1x    frame= 1043 fps= 15 q=9.4 size=    2960kB time=00:01:08.46 bitrate= 354.1kbits/s speed=   1x    frame= 1049 fps= 15 q=21.7 size=    2982kB time=00:01:08.83 bitrate= 354.9kbits/s speed=0.998x    frame= 1056 fps= 15 q=25.5 size=    3006kB time=00:01:09.33 bitrate= 355.1kbits/s speed=0.998x    frame= 1063 fps= 15 q=17.1 size=    3019kB time=00:01:09.86 bitrate= 354.0kbits/s speed=0.998x    frame= 1070 fps= 15 q=15.7 size=    3039kB time=00:01:10.40 bitrate= 353.6kbits/s speed=0.998x    frame= 1077 fps= 15 q=12.6 size=    3052kB time=00:01:10.93 bitrate= 352.4kbits/s speed=0.999x    frame= 1086 fps= 15 q=9.3 size=    3073kB time=00:01:11.60 bitrate= 351.6kbits/s speed=   1x    frame= 1093 fps= 15 q=9.5 size=    3091kB time=00:01:12.00 bitrate= 351.7kbits/s speed=0.999x    frame= 1100 fps= 15 q=7.5 size=    3102kB time=00:01:12.53 bitrate= 350.4kbits/s speed=0.999x    frame= 1107 fps= 15 q=7.3 size=    3125kB time=00:01:13.03 bitrate= 350.4kbits/s speed=0.999x    frame= 1114 fps= 15 q=7.1 size=    3136kB time=00:01:13.53 bitrate= 349.3kbits/s speed=0.998x    frame= 1121 fps= 15 q=7.6 size=    3158kB time=00:01:14.06 bitrate= 349.3kbits/s speed=0.999x    frame= 1128 fps= 15 q=11.1 size=    3180kB time=00:01:14.56 bitrate= 349.3kbits/s speed=0.998x    frame= 1142 fps= 15 q=7.6 size=    3211kB time=00:01:15.49 bitrate= 348.4kbits/s speed=   1x    frame= 1157 fps= 15 q=8.8 size=    3236kB time=00:01:16.01 bitrate= 348.7kbits/s speed=   1x    frame= 1171 fps= 15 q=8.8 size=    3262kB time=00:01:16.54 bitrate= 349.2kbits/s speed=   1x    frame= 1184 fps= 15 q=8.2 size=    3287kB time=00:01:17.01 bitrate= 349.6kbits/s speed=   1x    frame= 1192 fps= 15 q=8.5 size=    3304kB time=00:01:17.27 bitrate= 350.3kbits/s speed=0.999x    frame= 1199 fps= 15 q=6.8 size=    3315kB time=00:01:17.74 bitrate= 349.3kbits/s speed=0.999x    frame= 1206 fps= 15 q=9.0 size=    3336kB time=00:01:18.23 bitrate= 349.3kbits/s speed=0.999x    frame= 1213 fps= 15 q=6.1 size=    3357kB time=00:01:18.76 bitrate= 349.2kbits/s speed=0.999x    frame= 1220 fps= 15 q=7.8 size=    3370kB time=00:01:19.26 bitrate= 348.3kbits/s speed=0.998x    frame= 1227 fps= 15 q=6.9 size=    3397kB time=00:01:19.80 bitrate= 348.7kbits/s speed=0.999x    frame= 1237 fps= 15 q=6.4 size=    3426kB time=00:01:20.53 bitrate= 348.5kbits/s speed=   1x    frame= 1245 fps= 15 q=6.7 size=    3436kB time=00:01:20.93 bitrate= 347.7kbits/s speed=0.999x    frame= 1250 fps= 15 q=7.6 size=    3460kB time=00:01:21.32 bitrate= 348.6kbits/s speed=0.998x    frame= 1257 fps= 15 q=5.9 size=    3471kB time=00:01:21.86 bitrate= 347.3kbits/s speed=0.999x    frame= 1264 fps= 15 q=6.6 size=    3494kB time=00:01:22.40 bitrate= 347.4kbits/s speed=0.999x    frame= 1271 fps= 15 q=4.1 size=    3506kB time=00:01:22.90 bitrate= 346.4kbits/s speed=0.998x    frame= 1280 fps= 15 q=7.2 size=    3538kB time=00:01:23.60 bitrate= 346.6kbits/s speed=   1x    frame= 1294 fps= 15 q=6.1 size=    3573kB time=00:01:24.37 bitrate= 346.9kbits/s speed=   1x    frame= 1303 fps= 15 q=6.5 size=    3597kB time=00:01:24.69 bitrate= 348.0kbits/s speed=   1x    frame= 1311 fps= 15 q=6.5 size=    3617kB time=00:01:25.10 bitrate= 348.2kbits/s speed=0.999x    frame= 1318 fps= 15 q=6.5 size=    3629kB time=00:01:25.57 bitrate= 347.4kbits/s speed=0.999x    frame= 1326 fps= 15 q=7.1 size=    3652kB time=00:01:26.13 bitrate= 347.3kbits/s speed=   1x    frame= 1333 fps= 15 q=8.1 size=    3677kB time=00:01:26.63 bitrate= 347.6kbits/s speed=0.999x    frame= 1341 fps= 15 q=6.4 size=    3689kB time=00:01:27.20 bitrate= 346.5kbits/s speed=   1x    frame= 1353 fps= 15 q=7.4 size=    3719kB time=00:01:28.03 bitrate= 346.1kbits/s speed=   1x    frame= 1368 fps= 16 q=8.3 size=    3761kB time=00:01:28.55 bitrate= 347.9kbits/s speed=   1x    frame= 1382 fps= 16 q=7.0 size=    3785kB time=00:01:29.02 bitrate= 348.3kbits/s speed=   1x    frame= 1390 fps= 16 q=6.3 size=    3793kB time=00:01:29.28 bitrate= 348.0kbits/s speed=   1x    frame= 1398 fps= 16 q=6.6 size=    3818kB time=00:01:29.80 bitrate= 348.3kbits/s speed=   1x    frame= 1405 fps= 16 q=5.1 size=    3841kB time=00:01:30.30 bitrate= 348.4kbits/s speed=0.999x    frame= 1413 fps= 16 q=6.6 size=    3853kB time=00:01:30.83 bitrate= 347.5kbits/s speed=0.999x    frame= 1421 fps= 16 q=6.1 size=    3881kB time=00:01:31.43 bitrate= 347.7kbits/s speed=   1x    frame= 1428 fps= 16 q=6.8 size=    3905kB time=00:01:31.90 bitrate= 348.1kbits/s speed=0.999x    frame= 1440 fps= 16 q=6.9 size=    3934kB time=00:01:32.68 bitrate= 347.7kbits/s speed=   1x    frame= 1448 fps= 16 q=7.6 size=    3944kB time=00:01:33.03 bitrate= 347.2kbits/s speed=   1x    frame= 1456 fps= 16 q=5.8 size=    3968kB time=00:01:33.57 bitrate= 347.4kbits/s speed=0.999x    frame= 1464 fps= 16 q=6.5 size=    3997kB time=00:01:34.10 bitrate= 348.0kbits/s speed=   1x    frame= 1471 fps= 16 q=6.3 size=    4008kB time=00:01:34.60 bitrate= 347.0kbits/s speed=0.999x    frame= 1479 fps= 16 q=7.2 size=    4033kB time=00:01:35.16 bitrate= 347.2kbits/s speed=0.999x    frame= 1488 fps= 16 q=7.0 size=    4058kB time=00:01:35.80 bitrate= 347.0kbits/s speed=   1x    frame= 1496 fps= 16 q=7.2 size=    4069kB time=00:01:36.26 bitrate= 346.3kbits/s speed=0.999x    frame= 1504 fps= 16 q=8.1 size=    4092kB time=00:01:36.81 bitrate= 346.3kbits/s speed=0.999x    frame= 1512 fps= 16 q=8.2 size=    4115kB time=00:01:37.36 bitrate= 346.2kbits/s speed=0.999x    frame= 1520 fps= 16 q=7.8 size=    4128kB time=00:01:37.93 bitrate= 345.3kbits/s speed=0.999x    frame= 1528 fps= 16 q=8.3 size=    4155kB time=00:01:38.46 bitrate= 345.7kbits/s speed=0.999x    frame= 1537 fps= 16 q=9.3 size=    4180kB time=00:01:39.11 bitrate= 345.5kbits/s speed=   1x    frame= 1552 fps= 16 q=7.7 size=    4213kB time=00:01:39.89 bitrate= 345.5kbits/s speed=   1x    frame= 1567 fps= 16 q=8.0 size=    4241kB time=00:01:40.41 bitrate= 346.0kbits/s speed=   1x    frame= 1575 fps= 16 q=6.9 size=    4260kB time=00:01:40.70 bitrate= 346.5kbits/s speed=   1x    frame= 1583 fps= 16 q=6.0 size=    4270kB time=00:01:41.13 bitrate= 345.9kbits/s speed=0.999x    frame= 1591 fps= 16 q=6.8 size=    4293kB time=00:01:41.67 bitrate= 345.9kbits/s speed=0.999x    frame= 1599 fps= 16 q=6.7 size=    4316kB time=00:01:42.23 bitrate= 345.9kbits/s speed=   1x    frame= 1606 fps= 16 q=7.0 size=    4328kB time=00:01:42.73 bitrate= 345.1kbits/s speed=0.999x    frame= 1613 fps= 16 q=6.1 size=    4351kB time=00:01:43.23 bitrate= 345.2kbits/s speed=0.999x    frame= 1625 fps= 16 q=5.6 size=    4382kB time=00:01:44.09 bitrate= 344.9kbits/s speed=   1x    frame= 1635 fps= 16 q=7.5 size=    4406kB time=00:01:44.49 bitrate= 345.4kbits/s speed=   1x    frame= 1642 fps= 16 q=7.1 size=    4414kB time=00:01:44.80 bitrate= 345.0kbits/s speed=0.999x    frame= 1649 fps= 16 q=7.6 size=    4437kB time=00:01:45.33 bitrate= 345.0kbits/s speed=0.999x    frame= 1656 fps= 16 q=6.9 size=    4459kB time=00:01:45.83 bitrate= 345.1kbits/s speed=0.998x    frame= 1663 fps= 16 q=7.1 size=    4472kB time=00:01:46.40 bitrate= 344.3kbits/s speed=0.999x    frame= 1671 fps= 16 q=7.0 size=    4500kB time=00:01:47.00 bitrate= 344.5kbits/s speed=   1x    frame= 1683 fps= 16 q=7.3 size=    4531kB time=00:01:47.80 bitrate= 344.3kbits/s speed=   1x    frame= 1692 fps= 16 q=6.1 size=    4558kB time=00:01:48.14 bitrate= 345.3kbits/s speed=   1x    frame= 1700 fps= 16 q=6.3 size=    4568kB time=00:01:48.60 bitrate= 344.6kbits/s speed=0.999x    frame= 1707 fps= 16 q=6.9 size=    4591kB time=00:01:49.06 bitrate= 344.8kbits/s speed=0.999x    frame= 1714 fps= 16 q=6.2 size=    4603kB time=00:01:49.61 bitrate= 344.0kbits/s speed=0.999x    frame= 1721 fps= 16 q=6.5 size=    4627kB time=00:01:50.13 bitrate= 344.2kbits/s speed=0.999x    frame= 1730 fps= 16 q=5.6 size=    4655kB time=00:01:50.80 bitrate= 344.1kbits/s speed=   1x    frame= 1739 fps= 16 q=4.2 size=    4683kB time=00:01:51.36 bitrate= 344.5kbits/s speed=   1x    [flv @ 0x1ce93c0] Failed to update header with correct duration.
[flv @ 0x1ce93c0] Failed to update header with correct filesize.
frame= 1747 fps= 16 q=5.5 Lsize=    4696kB time=00:01:51.83 bitrate= 344.0kbits/s speed=   1x    
video:2854kB audio:1748kB subtitle:0kB other streams:0kB global headers:0kB muxing overhead: 2.054131%
ffmpeg version 4.1.4-1~deb10u1 Copyright (c) 2000-2019 the FFmpeg developers
  built with gcc 8 (Raspbian 8.3.0-6+rpi1)
  configuration: --prefix=/usr --extra-version='1~deb10u1' --toolchain=hardened --libdir=/usr/lib/arm-linux-gnueabihf --incdir=/usr/include/arm-linux-gnueabihf --arch=arm --enable-gpl --disable-stripping --enable-avresample --disable-filter=resample --enable-avisynth --enable-gnutls --enable-ladspa --enable-libaom --enable-libass --enable-libbluray --enable-libbs2b --enable-libcaca --enable-libcdio --enable-libcodec2 --enable-libflite --enable-libfontconfig --enable-libfreetype --enable-libfribidi --enable-libgme --enable-libgsm --enable-libjack --enable-libmp3lame --enable-libmysofa --enable-libopenjpeg --enable-libopenmpt --enable-libopus --enable-libpulse --enable-librsvg --enable-librubberband --enable-libshine --enable-libsnappy --enable-libsoxr --enable-libspeex --enable-libssh --enable-libtheora --enable-libtwolame --enable-libvidstab --enable-libvorbis --enable-libvpx --enable-libwavpack --enable-libwebp --enable-libx265 --enable-libxml2 --enable-libxvid --enable-libzmq --enable-libzvbi --enable-lv2 --enable-omx --enable-openal --enable-opengl --enable-sdl2 --enable-libdc1394 --enable-libdrm --enable-libiec61883 --enable-chromaprint --enable-frei0r --enable-libx264 --enable-shared
  WARNING: library configuration mismatch
  avcodec     configuration: --prefix=/usr --extra-version='1~deb10u1' --toolchain=hardened --libdir=/usr/lib/arm-linux-gnueabihf --incdir=/usr/include/arm-linux-gnueabihf --arch=arm --enable-gpl --disable-stripping --enable-avresample --disable-filter=resample --enable-avisynth --enable-gnutls --enable-ladspa --enable-libaom --enable-libass --enable-libbluray --enable-libbs2b --enable-libcaca --enable-libcdio --enable-libcodec2 --enable-libflite --enable-libfontconfig --enable-libfreetype --enable-libfribidi --enable-libgme --enable-libgsm --enable-libjack --enable-libmp3lame --enable-libmysofa --enable-libopenjpeg --enable-libopenmpt --enable-libopus --enable-libpulse --enable-librsvg --enable-librubberband --enable-libshine --enable-libsnappy --enable-libsoxr --enable-libspeex --enable-libssh --enable-libtheora --enable-libtwolame --enable-libvidstab --enable-libvorbis --enable-libvpx --enable-libwavpack --enable-libwebp --enable-libx265 --enable-libxml2 --enable-libxvid --enable-libzmq --enable-libzvbi --enable-lv2 --enable-omx --enable-openal --enable-opengl --enable-sdl2 --enable-libdc1394 --enable-libdrm --enable-libiec61883 --enable-chromaprint --enable-frei0r --enable-libx264 --enable-shared --enable-version3 --disable-doc --disable-programs --enable-liblensfun --enable-libopencore_amrnb --enable-libopencore_amrwb --enable-libtesseract --enable-libvo_amrwbenc
  libavutil      56. 22.100 / 56. 22.100
  libavcodec     58. 35.100 / 58. 35.100
  libavformat    58. 20.100 / 58. 20.100
  libavdevice    58.  5.100 / 58.  5.100
  libavfilter     7. 40.101 /  7. 40.101
  libavresample   4.  0.  0 /  4.  0.  0
  libswscale      5.  3.100 /  5.  3.100
  libswresample   3.  3.100 /  3.  3.100
  libpostproc    55.  3.100 / 55.  3.100
Input #0, lavfi, from 'anullsrc':
  Duration: N/A, start: 0.000000, bitrate: 705 kb/s
    Stream #0:0: Audio: pcm_u8, 44100 Hz, stereo, u8, 705 kb/s
Input #1, x11grab, from ':0.0':
  Duration: N/A, start: 1576465089.048305, bitrate: N/A
    Stream #1:0: Video: rawvideo (BGR[0] / 0x524742), bgr0, 480x320, 30 fps, 30 tbr, 1000k tbn, 1000k tbc
Stream mapping:
  Stream #1:0 -> #0:0 (rawvideo (native) -> flv1 (flv))
  Stream #0:0 -> #0:1 (pcm_u8 (native) -> mp3 (libmp3lame))
Press [q] to stop, [?] for help
Output #0, flv, to 'rtmp://a.rtmp.youtube.com/live2/628y-jagt-7b5c-4c9b':
  Metadata:
    encoder         : Lavf58.20.100
    Stream #0:0: Video: flv1 (flv) ([2][0][0][0] / 0x0002), yuv420p(progressive), 480x320, q=2-31, 200 kb/s, 30 fps, 1k tbn, 30 tbc
    Metadata:
      encoder         : Lavc58.35.100 flv
    Side data:
      cpb: bitrate max/min/avg: 0/0/200000 buffer size: 0 vbv_delay: -1
    Stream #0:1: Audio: mp3 (libmp3lame) ([2][0][0][0] / 0x0002), 44100 Hz, stereo, s16p
    Metadata:
      encoder         : Lavc58.35.100 libmp3lame
[x11grab @ 0x23c8290] Thread message queue blocking; consider raising the thread_queue_size option (current value: 8)
frame=    9 fps=0.0 q=5.7 size=      50kB time=00:00:00.28 bitrate=1423.5kbits/s speed=0.555x    frame=   16 fps= 15 q=5.4 size=      80kB time=00:00:01.02 bitrate= 645.4kbits/s speed=0.937x    frame=   23 fps= 14 q=5.4 size=      95kB time=00:00:01.54 bitrate= 507.0kbits/s speed=0.946x    frame=   30 fps= 14 q=5.7 size=     122kB time=00:00:02.06 bitrate= 483.5kbits/s speed=0.95x    frame=   37 fps= 14 q=3.6 size=     137kB time=00:00:02.63 bitrate= 425.1kbits/s speed=0.973x    frame=   44 fps= 13 q=4.9 size=     166kB time=00:00:03.16 bitrate= 429.2kbits/s speed=0.968x    frame=   52 fps= 14 q=6.9 size=     197kB time=00:00:03.80 bitrate= 424.1kbits/s speed=0.999x    frame=   65 fps= 15 q=6.1 size=     232kB time=00:00:04.62 bitrate= 411.4kbits/s speed=1.07x    frame=   79 fps= 16 q=6.5 size=     266kB time=00:00:05.19 bitrate= 419.6kbits/s speed=1.07x    frame=   92 fps= 17 q=5.7 size=     298kB time=00:00:05.67 bitrate= 430.6kbits/s speed=1.05x    frame=  100 fps= 17 q=7.8 size=     323kB time=00:00:05.93 bitrate= 446.3kbits/s speed=   1x    frame=  107 fps= 17 q=6.3 size=     334kB time=00:00:06.43 bitrate= 425.6kbits/s speed=   1x    frame=  114 fps= 16 q=9.4 size=     363kB time=00:00:06.90 bitrate= 430.8kbits/s speed=0.992x    frame=  121 fps= 16 q=8.1 size=     380kB time=00:00:07.43 bitrate= 418.9kbits/s speed=0.996x    frame=  128 fps= 16 q=9.5 size=     403kB time=00:00:07.94 bitrate= 415.8kbits/s speed=0.995x    frame=  135 fps= 16 q=6.9 size=     428kB time=00:00:08.43 bitrate= 415.5kbits/s speed=0.995x    frame=  143 fps= 16 q=8.7 size=     452kB time=00:00:09.03 bitrate= 409.3kbits/s speed=1.01x    frame=  151 fps= 16 q=6.0 size=     474kB time=00:00:09.53 bitrate= 407.5kbits/s speed=0.999x    frame=  158 fps= 16 q=5.9 size=     499kB time=00:00:10.00 bitrate= 408.5kbits/s speed=0.995x    frame=  165 fps= 16 q=6.2 size=     511kB time=00:00:10.53 bitrate= 397.4kbits/s speed=0.997x    frame=  172 fps= 16 q=5.2 size=     538kB time=00:00:11.03 bitrate= 399.7kbits/s speed=0.996x    frame=  179 fps= 15 q=5.6 size=     551kB time=00:00:11.53 bitrate= 391.0kbits/s speed=0.995x    frame=  187 fps= 15 q=6.4 size=     577kB time=00:00:12.13 bitrate= 389.8kbits/s speed=   1x    frame=  197 fps= 16 q=7.1 size=     608kB time=00:00:12.80 bitrate= 389.4kbits/s speed=1.02x    frame=  205 fps= 16 q=4.7 size=     618kB time=00:00:13.14 bitrate= 385.2kbits/s speed=   1x    frame=  212 fps= 16 q=5.5 size=     643kB time=00:00:13.63 bitrate= 386.4kbits/s speed=0.998x    frame=  219 fps= 15 q=4.3 size=     670kB time=00:00:14.13 bitrate= 388.6kbits/s speed=0.996x    frame=  226 fps= 15 q=5.3 size=     684kB time=00:00:14.63 bitrate= 383.1kbits/s speed=0.995x    frame=  233 fps= 15 q=5.0 size=     716kB time=00:00:15.16 bitrate= 386.8kbits/s speed=0.996x    frame=  241 fps= 15 q=3.8 size=     730kB time=00:00:15.76 bitrate= 379.5kbits/s speed=   1x    frame=  248 fps= 15 q=5.3 size=     761kB time=00:00:16.27 bitrate= 382.8kbits/s speed=   1x    frame=  255 fps= 15 q=6.4 size=     791kB time=00:00:16.70 bitrate= 388.2kbits/s speed=0.997x    frame=  262 fps= 15 q=5.9 size=     803kB time=00:00:17.20 bitrate= 382.5kbits/s speed=0.996x    frame=  269 fps= 15 q=5.3 size=     832kB time=00:00:17.73 bitrate= 384.1kbits/s speed=0.997x    frame=  276 fps= 15 q=4.6 size=     843kB time=00:00:18.23 bitrate= 378.8kbits/s speed=0.996x    frame=  283 fps= 15 q=5.2 size=     877kB time=00:00:18.76 bitrate= 382.7kbits/s speed=0.997x    frame=  293 fps= 15 q=5.2 size=     908kB time=00:00:19.50 bitrate= 381.5kbits/s speed=1.01x    frame=  302 fps= 15 q=5.1 size=     934kB time=00:00:20.01 bitrate= 382.3kbits/s speed=1.01x    frame=  310 fps= 15 q=6.4 size=     944kB time=00:00:20.37 bitrate= 379.5kbits/s speed=0.999x    frame=  317 fps= 15 q=5.3 size=     968kB time=00:00:20.87 bitrate= 379.9kbits/s speed=0.998x    frame=  324 fps= 15 q=5.8 size=     980kB time=00:00:21.36 bitrate= 375.9kbits/s speed=0.997x    frame=  331 fps= 15 q=5.8 size=    1007kB time=00:00:21.90 bitrate= 376.6kbits/s speed=0.998x    frame=  338 fps= 15 q=5.6 size=    1036kB time=00:00:22.40 bitrate= 378.8kbits/s speed=0.998x    frame=  347 fps= 15 q=5.6 size=    1053kB time=00:00:23.06 bitrate= 373.9kbits/s speed=   1x    frame=  354 fps= 15 q=5.7 size=    1081kB time=00:00:23.56 bitrate= 375.7kbits/s speed=   1x    frame=  361 fps= 15 q=5.2 size=    1104kB time=00:00:24.00 bitrate= 376.7kbits/s speed=   1x    frame=  368 fps= 15 q=5.0 size=    1115kB time=00:00:24.47 bitrate= 373.0kbits/s speed=0.999x    frame=  375 fps= 15 q=5.1 size=    1142kB time=00:00:24.97 bitrate= 374.6kbits/s speed=0.998x    frame=  382 fps= 15 q=5.1 size=    1155kB time=00:00:25.50 bitrate= 370.9kbits/s speed=0.998x    frame=  389 fps= 15 q=5.6 size=    1179kB time=00:00:26.00 bitrate= 371.4kbits/s speed=0.998x    frame=  397 fps= 15 q=5.1 size=    1207kB time=00:00:26.64 bitrate= 371.1kbits/s speed=   1x    frame=  404 fps= 15 q=6.0 size=    1218kB time=00:00:27.06 bitrate= 368.6kbits/s speed=   1x    frame=  411 fps= 15 q=5.2 size=    1242kB time=00:00:27.53 bitrate= 369.4kbits/s speed=0.998x    frame=  418 fps= 15 q=5.9 size=    1254kB time=00:00:28.03 bitrate= 366.4kbits/s speed=0.998x    frame=  425 fps= 15 q=6.4 size=    1278kB time=00:00:28.56 bitrate= 366.4kbits/s speed=0.999x    frame=  432 fps= 15 q=5.8 size=    1290kB time=00:00:29.07 bitrate= 363.6kbits/s speed=0.999x    frame=  439 fps= 15 q=5.0 size=    1314kB time=00:00:29.57 bitrate= 364.1kbits/s speed=0.998x    frame=  452 fps= 15 q=5.0 size=    1356kB time=00:00:30.46 bitrate= 364.7kbits/s speed=1.01x    frame=  466 fps= 15 q=5.9 size=    1385kB time=00:00:31.00 bitrate= 365.9kbits/s speed=1.01x    frame=  475 fps= 15 q=6.3 size=    1410kB time=00:00:31.32 bitrate= 368.7kbits/s speed=   1x    frame=  483 fps= 15 q=5.4 size=    1433kB time=00:00:31.74 bitrate= 369.9kbits/s speed=   1x    frame=  490 fps= 15 q=6.2 size=    1446kB time=00:00:32.23 bitrate= 367.4kbits/s speed=0.999x    frame=  497 fps= 15 q=6.0 size=    1470kB time=00:00:32.73 bitrate= 367.9kbits/s speed=0.999x    frame=  504 fps= 15 q=5.9 size=    1482kB time=00:00:33.23 bitrate= 365.3kbits/s speed=0.999x    frame=  511 fps= 15 q=5.6 size=    1507kB time=00:00:33.73 bitrate= 365.9kbits/s speed=0.999x    frame=  521 fps= 15 q=6.2 size=    1537kB time=00:00:34.46 bitrate= 365.3kbits/s speed=1.01x    frame=  535 fps= 15 q=6.0 size=    1571kB time=00:00:35.16 bitrate= 366.0kbits/s speed=1.01x    frame=  550 fps= 16 q=5.8 size=    1602kB time=00:00:35.71 bitrate= 367.5kbits/s speed=1.01x    frame=  565 fps= 16 q=4.8 size=    1645kB time=00:00:36.20 bitrate= 372.2kbits/s speed=1.01x    frame=  580 fps= 16 q=6.7 size=    1673kB time=00:00:36.72 bitrate= 373.2kbits/s speed=1.01x    frame=  591 fps= 16 q=6.8 size=    1697kB time=00:00:37.10 bitrate= 374.7kbits/s speed=1.01x    frame=  599 fps= 16 q=5.6 size=    1705kB time=00:00:37.43 bitrate= 373.2kbits/s speed=   1x    frame=  606 fps= 16 q=6.8 size=    1737kB time=00:00:37.93 bitrate= 375.2kbits/s speed=0.999x    frame=  614 fps= 16 q=7.4 size=    1760kB time=00:00:38.50 bitrate= 374.5kbits/s speed=   1x    frame=  621 fps= 16 q=6.1 size=    1771kB time=00:00:39.00 bitrate= 372.0kbits/s speed=0.999x    frame=  628 fps= 16 q=6.1 size=    1798kB time=00:00:39.47 bitrate= 373.1kbits/s speed=0.999x    frame=  637 fps= 16 q=5.2 size=    1812kB time=00:00:40.13 bitrate= 369.8kbits/s speed=   1x    frame=  645 fps= 16 q=5.5 size=    1837kB time=00:00:40.70 bitrate= 369.8kbits/s speed=   1x    frame=  653 fps= 16 q=6.7 size=    1859kB time=00:00:41.10 bitrate= 370.6kbits/s speed=   1x    frame=  660 fps= 16 q=6.6 size=    1871kB time=00:00:41.61 bitrate= 368.4kbits/s speed=   1x    frame=  667 fps= 16 q=6.3 size=    1893kB time=00:00:42.10 bitrate= 368.3kbits/s speed=   1x    frame=  674 fps= 16 q=5.9 size=    1921kB time=00:00:42.60 bitrate= 369.3kbits/s speed=0.999x    frame=  681 fps= 16 q=6.1 size=    1932kB time=00:00:43.12 bitrate= 367.0kbits/s speed=   1x    frame=  690 fps= 16 q=6.9 size=    1960kB time=00:00:43.78 bitrate= 366.7kbits/s speed=   1x    frame=  704 fps= 16 q=5.6 size=    1988kB time=00:00:44.48 bitrate= 366.2kbits/s speed=1.01x    frame=  718 fps= 16 q=5.6 size=    2017kB time=00:00:45.01 bitrate= 367.1kbits/s speed=1.01x    frame=  726 fps= 16 q=5.8 size=    2038kB time=00:00:45.24 bitrate= 369.0kbits/s speed=   1x    frame=  733 fps= 16 q=4.7 size=    2048kB time=00:00:45.71 bitrate= 367.0kbits/s speed=   1x    frame=  740 fps= 16 q=5.6 size=    2070kB time=00:00:46.20 bitrate= 367.1kbits/s speed=0.999x    frame=  747 fps= 16 q=5.2 size=    2093kB time=00:00:46.70 bitrate= 367.1kbits/s speed=0.999x    frame=  754 fps= 16 q=5.5 size=    2104kB time=00:00:47.20 bitrate= 365.2kbits/s speed=0.999x    frame=  761 fps= 16 q=5.9 size=    2128kB time=00:00:47.73 bitrate= 365.1kbits/s speed=0.999x    frame=  772 fps= 16 q=5.8 size=    2160kB time=00:00:48.53 bitrate= 364.5kbits/s speed=1.01x    frame=  784 fps= 16 q=5.8 size=    2187kB time=00:00:49.05 bitrate= 365.2kbits/s speed=1.01x    frame=  792 fps= 16 q=5.4 size=    2195kB time=00:00:49.37 bitrate= 364.2kbits/s speed=   1x    frame=  799 fps= 16 q=5.8 size=    2220kB time=00:00:49.84 bitrate= 364.8kbits/s speed=   1x    frame=  806 fps= 16 q=6.1 size=    2241kB time=00:00:50.30 bitrate= 365.0kbits/s speed=0.999x    frame=  813 fps= 16 q=6.0 size=    2253kB time=00:00:50.83 bitrate= 363.1kbits/s speed=   1x    frame=  820 fps= 16 q=6.7 size=    2274kB time=00:00:51.33 bitrate= 363.0kbits/s speed=0.999x    frame=  827 fps= 16 q=6.3 size=    2286kB time=00:00:51.83 bitrate= 361.3kbits/s speed=0.999x    frame=  836 fps= 16 q=5.6 size=    2314kB time=00:00:52.46 bitrate= 361.2kbits/s speed=   1x    frame=  843 fps= 16 q=6.1 size=    2335kB time=00:00:52.90 bitrate= 361.7kbits/s speed=   1x    frame=  850 fps= 16 q=5.1 size=    2347kB time=00:00:53.39 bitrate= 360.0kbits/s speed=0.999x    frame=  857 fps= 16 q=5.7 size=    2371kB time=00:00:53.90 bitrate= 360.4kbits/s speed=0.999x    frame=  864 fps= 16 q=5.0 size=    2382kB time=00:00:54.40 bitrate= 358.7kbits/s speed=0.999x    frame=  871 fps= 16 q=5.8 size=    2411kB time=00:00:54.91 bitrate= 359.8kbits/s speed=0.999x    frame=  879 fps= 16 q=6.7 size=    2436kB time=00:00:55.50 bitrate= 359.5kbits/s speed=   1x    frame=  893 fps= 16 q=6.1 size=    2467kB time=00:00:56.30 bitrate= 359.0kbits/s speed=1.01x    frame=  900 fps= 16 q=5.4 size=    2474kB time=00:00:56.56 bitrate= 358.2kbits/s speed=   1x    frame=  907 fps= 16 q=5.2 size=    2499kB time=00:00:57.02 bitrate= 359.0kbits/s speed=   1x    frame=  914 fps= 16 q=5.2 size=    2521kB time=00:00:57.49 bitrate= 359.2kbits/s speed=   1x    frame=  921 fps= 16 q=6.0 size=    2532kB time=00:00:57.96 bitrate= 357.8kbits/s speed=0.999x    frame=  928 fps= 16 q=6.0 size=    2555kB time=00:00:58.50 bitrate= 357.7kbits/s speed=   1x    frame=  935 fps= 16 q=4.9 size=    2566kB time=00:00:59.00 bitrate= 356.3kbits/s speed=0.999x    frame=  946 fps= 16 q=5.4 size=    2599kB time=00:00:59.80 bitrate= 356.0kbits/s speed=   1x    frame=  954 fps= 16 q=7.3 size=    2623kB time=00:01:00.13 bitrate= 357.3kbits/s speed=   1x    frame=  961 fps= 16 q=4.8 size=    2634kB time=00:01:00.60 bitrate= 356.0kbits/s speed=   1x    frame=  968 fps= 16 q=5.8 size=    2656kB time=00:01:01.07 bitrate= 356.2kbits/s speed=0.999x    frame=  975 fps= 16 q=5.8 size=    2681kB time=00:01:01.60 bitrate= 356.5kbits/s speed=0.999x    frame=  982 fps= 16 q=5.4 size=    2693kB time=00:01:02.10 bitrate= 355.2kbits/s speed=0.999x    frame=  989 fps= 16 q=5.6 size=    2718kB time=00:01:02.60 bitrate= 355.7kbits/s speed=0.999x    frame=  999 fps= 16 q=5.3 size=    2746kB time=00:01:03.33 bitrate= 355.1kbits/s speed=   1x    frame= 1007 fps= 16 q=5.4 size=    2756kB time=00:01:03.74 bitrate= 354.3kbits/s speed=   1x    frame= 1014 fps= 16 q=5.7 size=    2782kB time=00:01:04.23 bitrate= 354.8kbits/s speed=0.999x    frame= 1021 fps= 16 q=3.5 size=    2793kB time=00:01:04.73 bitrate= 353.5kbits/s speed=0.999x    frame= 1028 fps= 16 q=5.2 size=    2818kB time=00:01:05.26 bitrate= 353.7kbits/s speed=   1x    frame= 1035 fps= 16 q=5.0 size=    2842kB time=00:01:05.77 bitrate= 353.9kbits/s speed=0.999x    frame= 1042 fps= 16 q=5.1 size=    2853kB time=00:01:06.27 bitrate= 352.7kbits/s speed=0.999x    frame= 1052 fps= 16 q=4.9 size=    2881kB time=00:01:07.00 bitrate= 352.2kbits/s speed=   1x    frame= 1059 fps= 16 q=6.0 size=    2905kB time=00:01:07.37 bitrate= 353.3kbits/s speed=   1x    frame= 1066 fps= 16 q=4.9 size=    2915kB time=00:01:07.83 bitrate= 352.1kbits/s speed=0.999x    frame= 1073 fps= 16 q=5.2 size=    2939kB time=00:01:08.33 bitrate= 352.3kbits/s speed=0.999x    frame= 1080 fps= 16 q=4.8 size=    2950kB time=00:01:08.86 bitrate= 350.9kbits/s speed=   1x    frame= 1087 fps= 16 q=5.4 size=    2980kB time=00:01:09.36 bitrate= 351.9kbits/s speed=0.999x    frame= 1096 fps= 16 q=5.8 size=    3013kB time=00:01:10.03 bitrate= 352.4kbits/s speed=   1x    frame= 1103 fps= 16 q=5.3 size=    3024kB time=00:01:10.50 bitrate= 351.4kbits/s speed=   1x    frame= 1110 fps= 16 q=5.7 size=    3048kB time=00:01:10.96 bitrate= 351.9kbits/s speed=   1x    frame= 1116 fps= 16 q=5.1 size=    3059kB time=00:01:11.36 bitrate= 351.1kbits/s speed=0.999x    frame= 1123 fps= 16 q=5.4 size=    3084kB time=00:01:11.90 bitrate= 351.4kbits/s speed=   1x    frame= 1130 fps= 16 q=5.6 size=    3110kB time=00:01:12.40 bitrate= 351.9kbits/s speed=0.999x    frame= 1137 fps= 16 q=5.0 size=    3122kB time=00:01:12.90 bitrate= 350.7kbits/s speed=0.999x    frame= 1146 fps= 16 q=5.5 size=    3148kB time=00:01:13.56 bitrate= 350.6kbits/s speed=   1x    frame= 1152 fps= 16 q=5.4 size=    3158kB time=00:01:13.92 bitrate= 349.9kbits/s speed=   1x    frame= 1159 fps= 16 q=5.2 size=    3183kB time=00:01:14.43 bitrate= 350.3kbits/s speed=0.999x    frame= 1166 fps= 16 q=5.6 size=    3208kB time=00:01:14.93 bitrate= 350.8kbits/s speed=0.999x    frame= 1173 fps= 16 q=4.8 size=    3220kB time=00:01:15.46 bitrate= 349.5kbits/s speed=   1x    frame= 1180 fps= 16 q=5.7 size=    3246kB time=00:01:15.96 bitrate= 350.1kbits/s speed=0.999x    frame= 1187 fps= 16 q=4.9 size=    3257kB time=00:01:16.46 bitrate= 349.0kbits/s speed=0.999x    frame= 1197 fps= 16 q=4.9 size=    3288kB time=00:01:17.23 bitrate= 348.8kbits/s speed=   1x    frame= 1204 fps= 16 q=5.3 size=    3312kB time=00:01:17.58 bitrate= 349.7kbits/s speed=   1x    frame= 1211 fps= 16 q=5.7 size=    3323kB time=00:01:18.06 bitrate= 348.7kbits/s speed=   1x    frame= 1218 fps= 15 q=5.3 size=    3348kB time=00:01:18.56 bitrate= 349.1kbits/s speed=   1x    frame= 1225 fps= 15 q=3.2 size=    3361kB time=00:01:19.07 bitrate= 348.1kbits/s speed=0.999x    frame= 1232 fps= 15 q=5.6 size=    3392kB time=00:01:19.60 bitrate= 349.1kbits/s speed=   1x    frame= 1239 fps= 15 q=5.4 size=    3416kB time=00:01:20.10 bitrate= 349.3kbits/s speed=   1x    frame= 1247 fps= 15 q=6.0 size=    3430kB time=00:01:20.70 bitrate= 348.2kbits/s speed=   1x    frame= 1254 fps= 15 q=6.7 size=    3453kB time=00:01:21.16 bitrate= 348.5kbits/s speed=   1x    frame= 1261 fps= 15 q=5.3 size=    3464kB time=00:01:21.60 bitrate= 347.8kbits/s speed=0.999x    frame= 1268 fps= 15 q=5.9 size=    3490kB time=00:01:22.13 bitrate= 348.1kbits/s speed=   1x    frame= 1275 fps= 15 q=5.6 size=    3514kB time=00:01:22.63 bitrate= 348.4kbits/s speed=0.999x    frame= 1282 fps= 15 q=4.9 size=    3526kB time=00:01:23.13 bitrate= 347.4kbits/s speed=0.999x    frame= 1290 fps= 15 q=5.0 size=    3552kB time=00:01:23.73 bitrate= 347.5kbits/s speed=   1x    frame= 1297 fps= 15 q=4.8 size=    3565kB time=00:01:24.23 bitrate= 346.7kbits/s speed=   1x    frame= 1304 fps= 15 q=5.0 size=    3588kB time=00:01:24.66 bitrate= 347.1kbits/s speed=0.999x    frame= 1311 fps= 15 q=4.6 size=    3619kB time=00:01:25.20 bitrate= 348.0kbits/s speed=   1x    frame= 1318 fps= 15 q=5.8 size=    3633kB time=00:01:25.70 bitrate= 347.2kbits/s speed=0.999x    frame= 1325 fps= 15 q=5.6 size=    3658kB time=00:01:26.23 bitrate= 347.5kbits/s speed=0.999x    frame= 1332 fps= 15 q=4.9 size=    3670kB time=00:01:26.73 bitrate= 346.6kbits/s speed=0.999x    frame= 1343 fps= 15 q=5.2 size=    3705kB time=00:01:27.56 bitrate= 346.6kbits/s speed=   1x    frame= 1358 fps= 15 q=5.5 size=    3751kB time=00:01:28.16 bitrate= 348.5kbits/s speed=   1x    frame= 1365 fps= 15 q=6.7 size=    3760kB time=00:01:28.47 bitrate= 348.1kbits/s speed=   1x    frame= 1373 fps= 15 q=5.7 size=    3786kB time=00:01:28.90 bitrate= 348.9kbits/s speed=   1x    frame= 1380 fps= 15 q=7.3 size=    3800kB time=00:01:29.40 bitrate= 348.2kbits/s speed=   1x    frame= 1387 fps= 15 q=5.6 size=    3823kB time=00:01:29.91 bitrate= 348.3kbits/s speed=   1x    frame= 1394 fps= 15 q=5.9 size=    3847kB time=00:01:30.40 bitrate= 348.6kbits/s speed=   1x    frame= 1401 fps= 15 q=4.9 size=    3858kB time=00:01:30.90 bitrate= 347.7kbits/s speed=   1x    frame= 1410 fps= 15 q=5.8 size=    3889kB time=00:01:31.53 bitrate= 348.1kbits/s speed=   1x    frame= 1418 fps= 15 q=5.3 size=    3913kB time=00:01:32.03 bitrate= 348.3kbits/s speed=   1x    frame= 1425 fps= 15 q=5.1 size=    3925kB time=00:01:32.53 bitrate= 347.4kbits/s speed=   1x    frame= 1431 fps= 15 q=6.0 size=    3955kB time=00:01:32.97 bitrate= 348.5kbits/s speed=   1x    frame= 1438 fps= 15 q=5.6 size=    3966kB time=00:01:33.46 bitrate= 347.6kbits/s speed=   1x    frame= 1445 fps= 15 q=6.1 size=    3992kB time=00:01:33.96 bitrate= 348.1kbits/s speed=   1x    frame= 1452 fps= 15 q=5.3 size=    4004kB time=00:01:34.46 bitrate= 347.2kbits/s speed=0.999x    frame= 1462 fps= 15 q=5.6 size=    4036kB time=00:01:35.20 bitrate= 347.3kbits/s speed=   1x    frame= 1470 fps= 15 q=5.4 size=    4060kB time=00:01:35.60 bitrate= 347.8kbits/s speed=   1x    frame= 1477 fps= 15 q=4.4 size=    4071kB time=00:01:36.10 bitrate= 347.0kbits/s speed=   1x    frame= 1484 fps= 15 q=7.5 size=    4100kB time=00:01:36.60 bitrate= 347.6kbits/s speed=0.999x    frame= 1491 fps= 15 q=8.2 size=    4125kB time=00:01:37.15 bitrate= 347.8kbits/s speed=   1x    frame= 1498 fps= 15 q=11.3 size=    4140kB time=00:01:37.63 bitrate= 347.4kbits/s speed=   1x    frame= 1505 fps= 15 q=18.6 size=    4165kB time=00:01:38.13 bitrate= 347.7kbits/s speed=   1x    frame= 1517 fps= 15 q=16.0 size=    4199kB time=00:01:38.95 bitrate= 347.7kbits/s speed=   1x    frame= 1525 fps= 15 q=17.3 size=    4222kB time=00:01:39.26 bitrate= 348.4kbits/s speed=   1x    frame= 1533 fps= 15 q=11.3 size=    4236kB time=00:01:39.76 bitrate= 347.8kbits/s speed=   1x    frame= 1540 fps= 15 q=14.8 size=    4260kB time=00:01:40.26 bitrate= 348.1kbits/s speed=   1x    frame= 1547 fps= 15 q=11.0 size=    4277kB time=00:01:40.78 bitrate= 347.6kbits/s speed=   1x    frame= 1555 fps= 15 q=8.6 size=    4299kB time=00:01:41.36 bitrate= 347.4kbits/s speed=   1x    frame= 1562 fps= 15 q=11.3 size=    4320kB time=00:01:41.86 bitrate= 347.4kbits/s speed=   1x    frame= 1570 fps= 15 q=16.8 size=    4351kB time=00:01:42.43 bitrate= 348.0kbits/s speed=   1x    frame= 1578 fps= 15 q=8.3 size=    4370kB time=00:01:42.87 bitrate= 348.0kbits/s speed=   1x    frame= 1586 fps= 15 q=6.7 size=    4393kB time=00:01:43.40 bitrate= 348.0kbits/s speed=   1x    frame= 1593 fps= 15 q=7.5 size=    4405kB time=00:01:43.90 bitrate= 347.3kbits/s speed=   1x    frame= 1600 fps= 15 q=7.5 size=    4427kB time=00:01:44.40 bitrate= 347.4kbits/s speed=   1x    frame= 1607 fps= 15 q=7.8 size=    4440kB time=00:01:44.90 bitrate= 346.7kbits/s speed=   1x    frame= 1614 fps= 15 q=6.7 size=    4464kB time=00:01:45.40 bitrate= 346.9kbits/s speed=   1x    frame= 1628 fps= 15 q=6.1 size=    4500kB time=00:01:46.30 bitrate= 346.8kbits/s speed=   1x    frame= 1636 fps= 15 q=7.0 size=    4522kB time=00:01:46.63 bitrate= 347.4kbits/s speed=   1x    frame= 1644 fps= 15 q=5.7 size=    4531kB time=00:01:47.03 bitrate= 346.8kbits/s speed=   1x    frame= 1651 fps= 15 q=6.1 size=    4554kB time=00:01:47.50 bitrate= 347.0kbits/s speed=   1x    frame= 1658 fps= 15 q=4.9 size=    4579kB time=00:01:48.00 bitrate= 347.3kbits/s speed=   1x    frame= 1665 fps= 15 q=5.4 size=    4592kB time=00:01:48.51 bitrate= 346.6kbits/s speed=   1x    frame= 1672 fps= 15 q=5.7 size=    4615kB time=00:01:49.01 bitrate= 346.8kbits/s speed=   1x    frame= 1683 fps= 15 q=6.6 size=    4644kB time=00:01:49.76 bitrate= 346.6kbits/s speed=   1x    frame= 1691 fps= 15 q=6.6 size=    4655kB time=00:01:50.18 bitrate= 346.1kbits/s speed=   1x    frame= 1698 fps= 15 q=5.0 size=    4679kB time=00:01:50.57 bitrate= 346.7kbits/s speed=   1x    frame= 1705 fps= 15 q=3.1 size=    4690kB time=00:01:51.03 bitrate= 346.0kbits/s speed=   1x    frame= 1712 fps= 15 q=5.8 size=    4721kB time=00:01:51.54 bitrate= 346.7kbits/s speed=   1x    frame= 1719 fps= 15 q=5.2 size=    4743kB time=00:01:52.06 bitrate= 346.7kbits/s speed=   1x    [flv @ 0x23d13c0] Failed to update header with correct duration.
[flv @ 0x23d13c0] Failed to update header with correct filesize.
frame= 1722 fps= 15 q=5.9 Lsize=    4750kB time=00:01:52.35 bitrate= 346.4kbits/s speed=   1x    
video:2900kB audio:1756kB subtitle:0kB other streams:0kB global headers:0kB muxing overhead: 2.028403%
ffmpeg version 4.1.4-1~deb10u1 Copyright (c) 2000-2019 the FFmpeg developers
  built with gcc 8 (Raspbian 8.3.0-6+rpi1)
  configuration: --prefix=/usr --extra-version='1~deb10u1' --toolchain=hardened --libdir=/usr/lib/arm-linux-gnueabihf --incdir=/usr/include/arm-linux-gnueabihf --arch=arm --enable-gpl --disable-stripping --enable-avresample --disable-filter=resample --enable-avisynth --enable-gnutls --enable-ladspa --enable-libaom --enable-libass --enable-libbluray --enable-libbs2b --enable-libcaca --enable-libcdio --enable-libcodec2 --enable-libflite --enable-libfontconfig --enable-libfreetype --enable-libfribidi --enable-libgme --enable-libgsm --enable-libjack --enable-libmp3lame --enable-libmysofa --enable-libopenjpeg --enable-libopenmpt --enable-libopus --enable-libpulse --enable-librsvg --enable-librubberband --enable-libshine --enable-libsnappy --enable-libsoxr --enable-libspeex --enable-libssh --enable-libtheora --enable-libtwolame --enable-libvidstab --enable-libvorbis --enable-libvpx --enable-libwavpack --enable-libwebp --enable-libx265 --enable-libxml2 --enable-libxvid --enable-libzmq --enable-libzvbi --enable-lv2 --enable-omx --enable-openal --enable-opengl --enable-sdl2 --enable-libdc1394 --enable-libdrm --enable-libiec61883 --enable-chromaprint --enable-frei0r --enable-libx264 --enable-shared
  WARNING: library configuration mismatch
  avcodec     configuration: --prefix=/usr --extra-version='1~deb10u1' --toolchain=hardened --libdir=/usr/lib/arm-linux-gnueabihf --incdir=/usr/include/arm-linux-gnueabihf --arch=arm --enable-gpl --disable-stripping --enable-avresample --disable-filter=resample --enable-avisynth --enable-gnutls --enable-ladspa --enable-libaom --enable-libass --enable-libbluray --enable-libbs2b --enable-libcaca --enable-libcdio --enable-libcodec2 --enable-libflite --enable-libfontconfig --enable-libfreetype --enable-libfribidi --enable-libgme --enable-libgsm --enable-libjack --enable-libmp3lame --enable-libmysofa --enable-libopenjpeg --enable-libopenmpt --enable-libopus --enable-libpulse --enable-librsvg --enable-librubberband --enable-libshine --enable-libsnappy --enable-libsoxr --enable-libspeex --enable-libssh --enable-libtheora --enable-libtwolame --enable-libvidstab --enable-libvorbis --enable-libvpx --enable-libwavpack --enable-libwebp --enable-libx265 --enable-libxml2 --enable-libxvid --enable-libzmq --enable-libzvbi --enable-lv2 --enable-omx --enable-openal --enable-opengl --enable-sdl2 --enable-libdc1394 --enable-libdrm --enable-libiec61883 --enable-chromaprint --enable-frei0r --enable-libx264 --enable-shared --enable-version3 --disable-doc --disable-programs --enable-liblensfun --enable-libopencore_amrnb --enable-libopencore_amrwb --enable-libtesseract --enable-libvo_amrwbenc
  libavutil      56. 22.100 / 56. 22.100
  libavcodec     58. 35.100 / 58. 35.100
  libavformat    58. 20.100 / 58. 20.100
  libavdevice    58.  5.100 / 58.  5.100
  libavfilter     7. 40.101 /  7. 40.101
  libavresample   4.  0.  0 /  4.  0.  0
  libswscale      5.  3.100 /  5.  3.100
  libswresample   3.  3.100 /  3.  3.100
  libpostproc    55.  3.100 / 55.  3.100
Input #0, lavfi, from 'anullsrc':
  Duration: N/A, start: 0.000000, bitrate: 705 kb/s
    Stream #0:0: Audio: pcm_u8, 44100 Hz, stereo, u8, 705 kb/s
Input #1, x11grab, from ':0.0':
  Duration: N/A, start: 1576465253.762316, bitrate: N/A
    Stream #1:0: Video: rawvideo (BGR[0] / 0x524742), bgr0, 480x320, 30 fps, 30 tbr, 1000k tbn, 1000k tbc
Stream mapping:
  Stream #1:0 -> #0:0 (rawvideo (native) -> flv1 (flv))
  Stream #0:0 -> #0:1 (pcm_u8 (native) -> mp3 (libmp3lame))
Press [q] to stop, [?] for help
Output #0, flv, to 'rtmp://a.rtmp.youtube.com/live2/628y-jagt-7b5c-4c9b':
  Metadata:
    encoder         : Lavf58.20.100
    Stream #0:0: Video: flv1 (flv) ([2][0][0][0] / 0x0002), yuv420p(progressive), 480x320, q=2-31, 200 kb/s, 30 fps, 1k tbn, 30 tbc
    Metadata:
      encoder         : Lavc58.35.100 flv
    Side data:
      cpb: bitrate max/min/avg: 0/0/200000 buffer size: 0 vbv_delay: -1
    Stream #0:1: Audio: mp3 (libmp3lame) ([2][0][0][0] / 0x0002), 44100 Hz, stereo, s16p
    Metadata:
      encoder         : Lavc58.35.100 libmp3lame
[x11grab @ 0x196e290] Thread message queue blocking; consider raising the thread_queue_size option (current value: 8)
frame=    7 fps=0.0 q=5.3 size=      52kB time=00:00:00.23 bitrate=1816.3kbits/s speed=0.458x    frame=   14 fps= 13 q=5.7 size=      80kB time=00:00:00.90 bitrate= 731.1kbits/s speed=0.831x    frame=   21 fps= 13 q=5.2 size=      96kB time=00:00:01.46 bitrate= 537.0kbits/s speed=0.898x    frame=   27 fps= 13 q=6.3 size=     125kB time=00:00:01.93 bitrate= 528.2kbits/s speed=0.905x    frame=   34 fps= 13 q=4.8 size=     138kB time=00:00:02.46 bitrate= 457.8kbits/s speed=0.927x    frame=   41 fps= 13 q=6.2 size=     166kB time=00:00:03.03 bitrate= 449.3kbits/s speed=0.952x    frame=   50 fps= 13 q=5.7 size=     197kB time=00:00:03.73 bitrate= 432.4kbits/s speed=   1x    frame=   61 fps= 14 q=4.8 size=     217kB time=00:00:04.39 bitrate= 405.6kbits/s speed=1.04x    frame=   69 fps= 14 q=6.7 size=     241kB time=00:00:04.73 bitrate= 417.1kbits/s speed=0.991x    frame=   76 fps= 14 q=6.1 size=     264kB time=00:00:05.17 bitrate= 417.5kbits/s speed=0.981x    frame=   83 fps= 14 q=6.2 size=     277kB time=00:00:05.67 bitrate= 400.1kbits/s speed=0.978x    frame=   90 fps= 14 q=6.4 size=     301kB time=00:00:06.16 bitrate= 399.4kbits/s speed=0.978x    frame=   97 fps= 14 q=4.6 size=     316kB time=00:00:06.70 bitrate= 386.1kbits/s speed=0.981x    frame=  104 fps= 14 q=7.5 size=     343kB time=00:00:07.21 bitrate= 390.2kbits/s speed=0.983x    frame=  113 fps= 14 q=5.8 size=     372kB time=00:00:07.86 bitrate= 387.1kbits/s speed=0.999x    frame=  121 fps= 14 q=4.9 size=     385kB time=00:00:08.33 bitrate= 378.6kbits/s speed=0.995x    frame=  128 fps= 14 q=6.2 size=     410kB time=00:00:08.83 bitrate= 380.0kbits/s speed=0.989x    frame=  135 fps= 14 q=6.0 size=     436kB time=00:00:09.33 bitrate= 382.8kbits/s speed=0.989x    frame=  142 fps= 14 q=7.4 size=     450kB time=00:00:09.83 bitrate= 375.1kbits/s speed=0.989x    frame=  150 fps= 14 q=7.1 size=     474kB time=00:00:10.40 bitrate= 373.7kbits/s speed=0.996x    frame=  157 fps= 14 q=5.5 size=     488kB time=00:00:10.90 bitrate= 366.7kbits/s speed=0.993x    frame=  170 fps= 15 q=5.8 size=     532kB time=00:00:11.70 bitrate= 372.5kbits/s speed=1.02x    frame=  177 fps= 15 q=6.7 size=     542kB time=00:00:11.96 bitrate= 371.0kbits/s speed=0.996x    frame=  185 fps= 15 q=6.6 size=     569kB time=00:00:12.46 bitrate= 373.7kbits/s speed=0.992x    frame=  193 fps= 15 q=5.5 size=     584kB time=00:00:13.03 bitrate= 366.8kbits/s speed=0.997x    frame=  200 fps= 15 q=5.8 size=     607kB time=00:00:13.53 bitrate= 367.2kbits/s speed=0.992x    frame=  207 fps= 15 q=5.7 size=     631kB time=00:00:14.03 bitrate= 368.3kbits/s speed=0.993x    frame=  214 fps= 15 q=5.9 size=     644kB time=00:00:14.53 bitrate= 363.0kbits/s speed=0.993x    frame=  223 fps= 15 q=6.3 size=     672kB time=00:00:15.16 bitrate= 362.9kbits/s speed=0.999x    frame=  231 fps= 15 q=6.5 size=     696kB time=00:00:15.63 bitrate= 364.7kbits/s speed=0.993x    frame=  238 fps= 15 q=5.9 size=     709kB time=00:00:16.14 bitrate= 359.9kbits/s speed=0.994x    frame=  245 fps= 15 q=5.9 size=     733kB time=00:00:16.63 bitrate= 360.8kbits/s speed=0.993x    frame=  252 fps= 15 q=6.1 size=     746kB time=00:00:17.13 bitrate= 356.5kbits/s speed=0.994x    frame=  259 fps= 15 q=6.2 size=     770kB time=00:00:17.63 bitrate= 357.8kbits/s speed=0.994x    frame=  268 fps= 15 q=6.4 size=     801kB time=00:00:18.26 bitrate= 359.0kbits/s speed=0.998x    frame=  275 fps= 15 q=6.2 size=     815kB time=00:00:18.80 bitrate= 355.0kbits/s speed=   1x    frame=  283 fps= 15 q=5.6 size=     838kB time=00:00:19.26 bitrate= 356.4kbits/s speed=0.996x    frame=  290 fps= 15 q=5.6 size=     862kB time=00:00:19.73 bitrate= 357.8kbits/s speed=0.994x    frame=  297 fps= 15 q=6.5 size=     875kB time=00:00:20.23 bitrate= 354.3kbits/s speed=0.994x    frame=  304 fps= 15 q=6.9 size=     902kB time=00:00:20.76 bitrate= 355.8kbits/s speed=0.995x    frame=  311 fps= 15 q=6.8 size=     916kB time=00:00:21.29 bitrate= 352.5kbits/s speed=0.996x    frame=  322 fps= 15 q=6.5 size=     948kB time=00:00:22.03 bitrate= 352.5kbits/s speed=1.01x    frame=  336 fps= 15 q=7.0 size=     977kB time=00:00:22.62 bitrate= 353.9kbits/s speed=1.01x    frame=  344 fps= 15 q=6.5 size=     998kB time=00:00:22.93 bitrate= 356.5kbits/s speed=0.999x    frame=  352 fps= 15 q=6.4 size=    1026kB time=00:00:23.43 bitrate= 358.8kbits/s speed=0.999x    frame=  359 fps= 15 q=6.8 size=    1040kB time=00:00:23.93 bitrate= 355.8kbits/s speed=0.996x    frame=  366 fps= 15 q=6.8 size=    1064kB time=00:00:24.40 bitrate= 357.1kbits/s speed=0.995x    frame=  373 fps= 15 q=5.5 size=    1076kB time=00:00:24.90 bitrate= 354.1kbits/s speed=0.995x    frame=  380 fps= 15 q=5.8 size=    1099kB time=00:00:25.41 bitrate= 354.3kbits/s speed=0.996x    frame=  391 fps= 15 q=5.6 size=    1132kB time=00:00:26.20 bitrate= 353.8kbits/s speed=1.01x    frame=  399 fps= 15 q=6.5 size=    1154kB time=00:00:26.54 bitrate= 356.2kbits/s speed=0.999x    frame=  407 fps= 15 q=6.3 size=    1167kB time=00:00:27.03 bitrate= 353.7kbits/s speed=0.997x    frame=  415 fps= 15 q=7.6 size=    1193kB time=00:00:27.60 bitrate= 354.2kbits/s speed=0.997x    frame=  423 fps= 15 q=7.3 size=    1221kB time=00:00:28.16 bitrate= 355.0kbits/s speed=0.999x    frame=  430 fps= 15 q=6.5 size=    1234kB time=00:00:28.63 bitrate= 353.0kbits/s speed=0.996x    frame=  438 fps= 15 q=6.1 size=    1258kB time=00:00:29.20 bitrate= 352.9kbits/s speed=0.998x    frame=  446 fps= 15 q=5.6 size=    1286kB time=00:00:29.76 bitrate= 354.0kbits/s speed=0.999x    frame=  454 fps= 15 q=7.2 size=    1299kB time=00:00:30.23 bitrate= 352.1kbits/s speed=0.997x    frame=  461 fps= 15 q=7.2 size=    1328kB time=00:00:30.74 bitrate= 353.9kbits/s speed=0.997x    frame=  469 fps= 15 q=4.9 size=    1342kB time=00:00:31.30 bitrate= 351.1kbits/s speed=0.997x    frame=  476 fps= 15 q=12.8 size=    1373kB time=00:00:31.80 bitrate= 353.6kbits/s speed=0.997x    frame=  484 fps= 15 q=7.6 size=    1396kB time=00:00:32.36 bitrate= 353.3kbits/s speed=0.997x    frame=  495 fps= 15 q=8.0 size=    1428kB time=00:00:33.13 bitrate= 353.1kbits/s speed=   1x    frame=  503 fps= 15 q=7.4 size=    1441kB time=00:00:33.54 bitrate= 351.9kbits/s speed=   1x    frame=  511 fps= 15 q=6.7 size=    1463kB time=00:00:33.96 bitrate= 352.8kbits/s speed=0.997x    frame=  519 fps= 15 q=8.6 size=    1487kB time=00:00:34.53 bitrate= 352.8kbits/s speed=0.999x    frame=  526 fps= 15 q=7.1 size=    1500kB time=00:00:35.00 bitrate= 351.1kbits/s speed=0.997x    frame=  533 fps= 15 q=6.8 size=    1523kB time=00:00:35.52 bitrate= 351.3kbits/s speed=0.998x    frame=  540 fps= 15 q=6.6 size=    1537kB time=00:00:36.02 bitrate= 349.4kbits/s speed=0.998x    frame=  550 fps= 15 q=7.0 size=    1565kB time=00:00:36.70 bitrate= 349.4kbits/s speed=   1x    frame=  558 fps= 15 q=7.3 size=    1594kB time=00:00:37.17 bitrate= 351.3kbits/s speed=   1x    frame=  566 fps= 15 q=7.5 size=    1620kB time=00:00:37.64 bitrate= 352.4kbits/s speed=0.998x    frame=  574 fps= 15 q=6.6 size=    1634kB time=00:00:38.20 bitrate= 350.4kbits/s speed=0.998x    frame=  581 fps= 15 q=6.2 size=    1660kB time=00:00:38.71 bitrate= 351.2kbits/s speed=0.998x    frame=  589 fps= 15 q=5.8 size=    1673kB time=00:00:39.23 bitrate= 349.3kbits/s speed=0.997x    frame=  597 fps= 15 q=6.2 size=    1697kB time=00:00:39.80 bitrate= 349.2kbits/s speed=0.999x    frame=  606 fps= 15 q=6.7 size=    1725kB time=00:00:40.43 bitrate= 349.4kbits/s speed=   1x    frame=  614 fps= 15 q=6.4 size=    1748kB time=00:00:40.83 bitrate= 350.6kbits/s speed=0.998x    frame=  622 fps= 15 q=6.7 size=    1762kB time=00:00:41.36 bitrate= 348.8kbits/s speed=0.997x    frame=  629 fps= 15 q=7.3 size=    1786kB time=00:00:41.90 bitrate= 349.1kbits/s speed=0.998x    frame=  637 fps= 15 q=5.7 size=    1800kB time=00:00:42.43 bitrate= 347.5kbits/s speed=0.998x    frame=  644 fps= 15 q=6.6 size=    1824kB time=00:00:42.94 bitrate= 347.9kbits/s speed=0.998x    frame=  653 fps= 15 q=6.4 size=    1850kB time=00:00:43.56 bitrate= 347.9kbits/s speed=   1x    frame=  665 fps= 15 q=6.9 size=    1881kB time=00:00:44.25 bitrate= 348.3kbits/s speed=   1x    frame=  673 fps= 15 q=5.5 size=    1902kB time=00:00:44.56 bitrate= 349.6kbits/s speed=   1x    frame=  681 fps= 15 q=5.5 size=    1914kB time=00:00:45.03 bitrate= 348.1kbits/s speed=0.998x    frame=  688 fps= 15 q=6.3 size=    1941kB time=00:00:45.53 bitrate= 349.2kbits/s speed=0.998x    frame=  695 fps= 15 q=5.9 size=    1954kB time=00:00:46.05 bitrate= 347.6kbits/s speed=0.998x    frame=  702 fps= 15 q=6.8 size=    1980kB time=00:00:46.57 bitrate= 348.2kbits/s speed=0.999x    frame=  709 fps= 15 q=3.4 size=    1992kB time=00:00:47.04 bitrate= 346.8kbits/s speed=0.998x    frame=  721 fps= 15 q=3.7 size=    2032kB time=00:00:47.86 bitrate= 347.7kbits/s speed=   1x    frame=  729 fps= 15 q=5.5 size=    2058kB time=00:00:48.17 bitrate= 349.9kbits/s speed=0.998x    frame=  736 fps= 15 q=4.8 size=    2080kB time=00:00:48.64 bitrate= 350.4kbits/s speed=0.998x    frame=  743 fps= 15 q=5.7 size=    2094kB time=00:00:49.13 bitrate= 349.1kbits/s speed=0.997x    frame=  750 fps= 15 q=5.2 size=    2121kB time=00:00:49.63 bitrate= 350.0kbits/s speed=0.997x    frame=  757 fps= 15 q=2.9 size=    2133kB time=00:00:50.16 bitrate= 348.4kbits/s speed=0.998x    frame=  764 fps= 15 q=5.7 size=    2165kB time=00:00:50.67 bitrate= 350.0kbits/s speed=0.998x    frame=  773 fps= 15 q=5.0 size=    2195kB time=00:00:51.33 bitrate= 350.3kbits/s speed=   1x    frame=  781 fps= 15 q=3.9 size=    2208kB time=00:00:51.80 bitrate= 349.1kbits/s speed=0.998x    frame=  788 fps= 15 q=5.2 size=    2235kB time=00:00:52.30 bitrate= 350.0kbits/s speed=0.998x    frame=  795 fps= 15 q=7.5 size=    2258kB time=00:00:52.80 bitrate= 350.3kbits/s speed=0.998x    frame=  802 fps= 15 q=5.6 size=    2270kB time=00:00:53.30 bitrate= 348.9kbits/s speed=0.998x    frame=  809 fps= 15 q=5.4 size=    2297kB time=00:00:53.80 bitrate= 349.8kbits/s speed=0.998x    frame=  818 fps= 15 q=5.4 size=    2325kB time=00:00:54.46 bitrate= 349.6kbits/s speed=   1x    frame=  825 fps= 15 q=5.2 size=    2337kB time=00:00:54.96 bitrate= 348.4kbits/s speed=0.999x    frame=  833 fps= 15 q=5.6 size=    2363kB time=00:00:55.46 bitrate= 349.0kbits/s speed=0.999x    frame=  839 fps= 15 q=4.5 size=    2376kB time=00:00:55.90 bitrate= 348.1kbits/s speed=0.998x    frame=  847 fps= 15 q=5.8 size=    2398kB time=00:00:56.46 bitrate= 347.9kbits/s speed=0.999x    frame=  853 fps= 15 q=3.5 size=    2410kB time=00:00:56.90 bitrate= 346.9kbits/s speed=0.998x    frame=  861 fps= 15 q=4.7 size=    2443kB time=00:00:57.46 bitrate= 348.2kbits/s speed=0.999x    frame=  871 fps= 15 q=6.4 size=    2481kB time=00:00:58.17 bitrate= 349.3kbits/s speed=   1x    frame=  885 fps= 15 q=6.7 size=    2517kB time=00:00:58.80 bitrate= 350.7kbits/s speed=   1x    frame=  893 fps= 15 q=6.3 size=    2537kB time=00:00:59.03 bitrate= 352.1kbits/s speed=0.999x    frame=  901 fps= 15 q=5.6 size=    2550kB time=00:00:59.56 bitrate= 350.7kbits/s speed=0.999x    frame=  909 fps= 15 q=7.3 size=    2574kB time=00:01:00.10 bitrate= 350.8kbits/s speed=0.998x    frame=  917 fps= 15 q=7.1 size=    2597kB time=00:01:00.66 bitrate= 350.7kbits/s speed=0.999x    frame=  924 fps= 15 q=7.1 size=    2610kB time=00:01:01.16 bitrate= 349.5kbits/s speed=0.998x    frame=  932 fps= 15 q=7.6 size=    2638kB time=00:01:01.73 bitrate= 350.1kbits/s speed=0.999x    frame=  943 fps= 15 q=7.4 size=    2668kB time=00:01:02.46 bitrate= 349.9kbits/s speed=   1x    frame=  951 fps= 15 q=6.9 size=    2688kB time=00:01:02.77 bitrate= 350.7kbits/s speed=0.999x    frame=  959 fps= 15 q=6.8 size=    2700kB time=00:01:03.30 bitrate= 349.4kbits/s speed=0.999x    frame=  966 fps= 15 q=6.4 size=    2727kB time=00:01:03.80 bitrate= 350.1kbits/s speed=0.998x    frame=  974 fps= 15 q=6.4 size=    2751kB time=00:01:04.36 bitrate= 350.2kbits/s speed=0.999x    frame=  981 fps= 15 q=6.8 size=    2764kB time=00:01:04.88 bitrate= 349.0kbits/s speed=0.999x    frame=  989 fps= 15 q=7.3 size=    2789kB time=00:01:05.40 bitrate= 349.3kbits/s speed=0.999x    frame=  998 fps= 15 q=8.9 size=    2819kB time=00:01:06.06 bitrate= 349.6kbits/s speed=   1x    frame= 1005 fps= 15 q=20.6 size=    2838kB time=00:01:06.36 bitrate= 350.3kbits/s speed=0.998x    frame= 1013 fps= 15 q=17.3 size=    2861kB time=00:01:06.93 bitrate= 350.2kbits/s speed=0.998x    frame= 1021 fps= 15 q=7.1 size=    2876kB time=00:01:07.53 bitrate= 348.8kbits/s speed=0.999x    frame= 1028 fps= 15 q=7.8 size=    2898kB time=00:01:08.07 bitrate= 348.8kbits/s speed=0.999x    frame= 1036 fps= 15 q=7.7 size=    2921kB time=00:01:08.57 bitrate= 349.0kbits/s speed=0.998x    [flv @ 0x19773c0] Failed to update header with correct duration.
[flv @ 0x19773c0] Failed to update header with correct filesize.
frame= 1043 fps= 15 q=8.6 Lsize=    2936kB time=00:01:09.14 bitrate= 347.8kbits/s speed=   1x    
video:1797kB audio:1081kB subtitle:0kB other streams:0kB global headers:0kB muxing overhead: 2.014791%
